<?xml version="1.0" encoding="UTF-8" standalone="no"?>
<!-- Created with Inkscape (http://www.inkscape.org/) -->

<svg
   xmlns:dc="http://purl.org/dc/elements/1.1/"
   xmlns:cc="http://creativecommons.org/ns#"
   xmlns:rdf="http://www.w3.org/1999/02/22-rdf-syntax-ns#"
   xmlns:svg="http://www.w3.org/2000/svg"
   xmlns="http://www.w3.org/2000/svg"
   xmlns:sodipodi="http://sodipodi.sourceforge.net/DTD/sodipodi-0.dtd"
   xmlns:inkscape="http://www.inkscape.org/namespaces/inkscape"
   width="210mm"
   height="297mm"
   viewBox="0 0 744.09448819 1052.3622047"
   id="svg4517"
   version="1.1"
   inkscape:version="0.91 r13725"
   sodipodi:docname="facet.svg">
  <defs
     id="defs4519">
    <clipPath
       clipPathUnits="userSpaceOnUse"
       id="clipPath458">
      <path
         d="m 416.512,143.773 c 0,-46.944 38.055,-85 85,-85 l 0,0 c 46.944,0 85,38.056 85,85 l 0,0 c 0,46.945 -38.056,85.001 -85,85.001 l 0,0 c -46.945,0 -85,-38.056 -85,-85.001"
         id="path460"
         inkscape:connector-curvature="0" />
    </clipPath>
    <clipPath
       clipPathUnits="userSpaceOnUse"
       id="clipPath442">
      <path
         d="M 0,800 800,800 800,0 0,0 0,800 Z"
         id="path444"
         inkscape:connector-curvature="0" />
    </clipPath>
  </defs>
  <sodipodi:namedview
     id="base"
     pagecolor="#ffffff"
     bordercolor="#666666"
     borderopacity="1.0"
     inkscape:pageopacity="0.0"
     inkscape:pageshadow="2"
     inkscape:zoom="0.35"
     inkscape:cx="375"
     inkscape:cy="520"
     inkscape:document-units="px"
     inkscape:current-layer="layer1"
     showgrid="false"
     inkscape:window-width="1600"
     inkscape:window-height="837"
     inkscape:window-x="-8"
     inkscape:window-y="-8"
     inkscape:window-maximized="1" />
  <metadata
     id="metadata4522">
    <rdf:RDF>
      <cc:Work
         rdf:about="">
        <dc:format>image/svg+xml</dc:format>
        <dc:type
           rdf:resource="http://purl.org/dc/dcmitype/StillImage" />
        <dc:title></dc:title>
      </cc:Work>
    </rdf:RDF>
  </metadata>
  <g
     inkscape:label="Layer 1"
     inkscape:groupmode="layer"
     id="layer1">
    <g
       id="g438"
       transform="matrix(1.25,0,0,-1.25,-512.60266,546.36442)">
      <g
         id="g440"
         clip-path="url(#clipPath442)">
        <g
           id="g446"
           transform="translate(586.5107,143.7744)">
          <path
             d="M 0,0 C 0,46.943 -38.056,84.999 -84.999,84.999 -131.943,84.999 -170,46.943 -170,0 c 0,-46.944 38.057,-85 85.001,-85 C -38.056,-85 0,-46.944 0,0"
             style="fill:#f6a100;fill-opacity:1;fill-rule:nonzero;stroke:none"
             id="path448"
             inkscape:connector-curvature="0" />
        </g>
        <g
           id="g450"
           transform="translate(586.5107,143.7744)">
          <path
             d="m 0,0 c 0,46.943 -38.056,84.999 -84.999,84.999 l 0,-169.999 C -38.056,-85 0,-46.944 0,0"
             style="fill:#ed9a00;fill-opacity:1;fill-rule:nonzero;stroke:none"
             id="path452"
             inkscape:connector-curvature="0" />
        </g>
      </g>
    </g>
    <g
       id="g454"
       transform="matrix(1.25,0,0,-1.25,-512.60266,546.36442)">
      <g
         id="g456"
         clip-path="url(#clipPath458)">
        <path
           d="m 514.273,95.041 -24.893,0 0,27.295 24.893,0 0,-27.295 z"
           style="fill:#d9a78c;fill-opacity:1;fill-rule:nonzero;stroke:none"
           id="path462"
           inkscape:connector-curvature="0" />
        <g
           id="g464"
           transform="translate(514.1162,107.8135)">
          <path
             d="m 0,0 4.245,0 c 7.908,-2.038 16.562,-3.483 22.321,-10.152 3.589,-4.156 9.823,-38.889 9.823,-38.889 l -15.079,0 -33.757,0 0,31.812 0,7.511 C -5.573,-9.718 0,-5.367 0,0"
             style="fill:#c74043;fill-opacity:1;fill-rule:nonzero;stroke:none"
             id="path466"
             inkscape:connector-curvature="0" />
        </g>
        <g
           id="g468"
           transform="translate(489.2217,107.8135)">
          <path
             d="m 0,0 -4.236,0 c -7.909,-2.038 -16.571,-3.483 -22.33,-10.152 -3.589,-4.156 -9.823,-38.889 -9.823,-38.889 l 15.079,0 33.757,0 0,31.812 0,7.511 C 5.573,-9.718 0,-5.367 0,0"
             style="fill:#c74043;fill-opacity:1;fill-rule:nonzero;stroke:none"
             id="path470"
             inkscape:connector-curvature="0" />
        </g>
        <g
           id="g472"
           transform="translate(501.8262,200.4395)">
          <path
             d="m 0,0 c 12.086,0 31.199,-6.871 31.199,-39.066 0,-18.59 -6.06,-30.768 -8.701,-34.137 -2.43,-3.1 -16.09,-9.704 -22.498,-9.704 L 0,0 Z"
             style="fill:#eac0a7;fill-opacity:1;fill-rule:nonzero;stroke:none"
             id="path474"
             inkscape:connector-curvature="0" />
        </g>
        <g
           id="g476"
           transform="translate(539.0371,153.6963)">
          <path
             d="M 0,0 C 0.533,5.144 -1.918,9.709 -5.473,10.197 -9.03,10.685 -12.344,6.909 -12.878,1.765 -13.411,-3.378 -10.96,-7.942 -7.402,-8.431 -3.848,-8.917 -0.533,-5.143 0,0"
             style="fill:#eac0a7;fill-opacity:1;fill-rule:nonzero;stroke:none"
             id="path478"
             inkscape:connector-curvature="0" />
        </g>
        <g
           id="g480"
           transform="translate(501.8262,200.4395)">
          <path
             d="m 0,0 c -12.086,0 -31.199,-6.871 -31.199,-39.066 0,-18.59 6.059,-30.768 8.701,-34.137 2.43,-3.1 16.089,-9.704 22.498,-9.704 L 0,0 Z"
             style="fill:#f2d7bc;fill-opacity:1;fill-rule:nonzero;stroke:none"
             id="path482"
             inkscape:connector-curvature="0" />
        </g>
        <g
           id="g484"
           transform="translate(464.6152,153.6963)">
          <path
             d="M 0,0 C -0.533,5.144 1.918,9.709 5.473,10.197 9.029,10.685 12.344,6.909 12.877,1.765 13.411,-3.378 10.959,-7.942 7.402,-8.431 3.848,-8.917 0.532,-5.143 0,0"
             style="fill:#f2d7bc;fill-opacity:1;fill-rule:nonzero;stroke:none"
             id="path486"
             inkscape:connector-curvature="0" />
        </g>
        <g
           id="g488"
           transform="translate(501.8262,129.6777)">
          <path
             d="m 0,0 c 5.634,0 10.2,1.861 10.2,4.156 l -20.399,0 C -10.199,1.861 -5.633,0 0,0"
             style="fill:#ffffff;fill-opacity:1;fill-rule:nonzero;stroke:none"
             id="path490"
             inkscape:connector-curvature="0" />
        </g>
        <g
           id="g492"
           transform="translate(526.9688,158.8203)">
          <path
             d="M 0,0 C 1.301,3.32 3.875,5.446 6.596,5.073 6.602,5.072 6.609,5.07 6.616,5.068 7.85,8.888 8.292,13.428 6.6,18.246 c -9,25.623 1.222,30.197 1.222,30.197 0,0 -9.953,0.446 -17.674,-5.945 5.325,8.254 7.721,10.385 7.721,10.385 0,0 -11.182,2.395 -23.162,-9.852 2.662,6.657 5.857,10.041 5.857,10.041 0,0 -25.027,-0.189 -34.08,-18.295 -5.16,-10.319 -5.558,-21.499 -4.309,-29.949 0.305,0.11 0.618,0.2 0.944,0.245 1.181,0.161 2.332,-0.153 3.365,-0.825 l 0,7.898 c 4.793,2.131 9.852,4.793 9.585,15.444 l 17.306,0 17.838,0 c 0,0 -0.799,-11.983 8.787,-14.91 L 0,0 Z"
             style="fill:#553828;fill-opacity:1;fill-rule:nonzero;stroke:none"
             id="path494"
             inkscape:connector-curvature="0" />
        </g>
        <g
           id="g496"
           transform="translate(501.6738,94.9434)">
          <path
             d="m 0,0 c 9.215,0 16.688,5.762 16.688,12.87 l -4.276,0 C 12.412,7.513 6.857,3.168 0,3.153 -6.859,3.168 -12.413,7.513 -12.413,12.87 l -4.275,0 C -16.688,5.762 -9.217,0 0,0"
             style="fill:#0f958c;fill-opacity:1;fill-rule:nonzero;stroke:none"
             id="path498"
             inkscape:connector-curvature="0" />
        </g>
      </g>
    </g>
  </g>
</svg>
