<?xml version="1.0" encoding="UTF-8" standalone="no"?>
<!-- Created with Inkscape (http://www.inkscape.org/) -->

<svg
   xmlns:dc="http://purl.org/dc/elements/1.1/"
   xmlns:cc="http://creativecommons.org/ns#"
   xmlns:rdf="http://www.w3.org/1999/02/22-rdf-syntax-ns#"
   xmlns:svg="http://www.w3.org/2000/svg"
   xmlns="http://www.w3.org/2000/svg"
   xmlns:sodipodi="http://sodipodi.sourceforge.net/DTD/sodipodi-0.dtd"
   xmlns:inkscape="http://www.inkscape.org/namespaces/inkscape"
   width="210mm"
   height="297mm"
   viewBox="0 0 744.09448819 1052.3622047"
   id="svg4643"
   version="1.1"
   inkscape:version="0.91 r13725"
   sodipodi:docname="kobieta.svg">
  <defs
     id="defs4645">
    <clipPath
       clipPathUnits="userSpaceOnUse"
       id="clipPath856">
      <path
         d="m 10.47,143.773 c 0,-46.945 38.054,-85.001 84.999,-85.001 l 0,0 c 46.945,0 85.001,38.056 85.001,85.001 l 0,0 c 0,46.945 -38.056,85.001 -85.001,85.001 l 0,0 c -46.945,0 -84.999,-38.056 -84.999,-85.001"
         id="path858"
         inkscape:connector-curvature="0" />
    </clipPath>
    <clipPath
       clipPathUnits="userSpaceOnUse"
       id="clipPath840">
      <path
         d="M 0,800 800,800 800,0 0,0 0,800 Z"
         id="path842"
         inkscape:connector-curvature="0" />
    </clipPath>
  </defs>
  <sodipodi:namedview
     id="base"
     pagecolor="#ffffff"
     bordercolor="#666666"
     borderopacity="1.0"
     inkscape:pageopacity="0.0"
     inkscape:pageshadow="2"
     inkscape:zoom="0.35"
     inkscape:cx="375"
     inkscape:cy="520"
     inkscape:document-units="px"
     inkscape:current-layer="layer1"
     showgrid="false"
     inkscape:window-width="1600"
     inkscape:window-height="837"
     inkscape:window-x="-8"
     inkscape:window-y="-8"
     inkscape:window-maximized="1" />
  <metadata
     id="metadata4648">
    <rdf:RDF>
      <cc:Work
         rdf:about="">
        <dc:format>image/svg+xml</dc:format>
        <dc:type
           rdf:resource="http://purl.org/dc/dcmitype/StillImage" />
        <dc:title></dc:title>
      </cc:Work>
    </rdf:RDF>
  </metadata>
  <g
     inkscape:label="Layer 1"
     inkscape:groupmode="layer"
     id="layer1">
    <g
       id="g836"
       transform="matrix(1.25,0,0,-1.25,23.52177,360.64951)">
      <g
         id="g838"
         clip-path="url(#clipPath840)">
        <g
           id="g844"
           transform="translate(180.4668,143.7744)">
          <path
             d="m 0,0 c 0,46.943 -38.055,84.999 -84.997,84.999 -46.944,0 -85,-38.056 -85,-84.999 0,-46.944 38.056,-85 85,-85 C -38.055,-85 0,-46.944 0,0"
             style="fill:#5a4980;fill-opacity:1;fill-rule:nonzero;stroke:none"
             id="path846"
             inkscape:connector-curvature="0" />
        </g>
        <g
           id="g848"
           transform="translate(180.4668,143.7744)">
          <path
             d="m 0,0 c 0,46.943 -38.055,84.999 -84.997,84.999 l 0,-169.999 C -38.055,-85 0,-46.944 0,0"
             style="fill:#534378;fill-opacity:1;fill-rule:nonzero;stroke:none"
             id="path850"
             inkscape:connector-curvature="0" />
        </g>
      </g>
    </g>
    <g
       id="g852"
       transform="matrix(1.25,0,0,-1.25,23.52177,360.64951)">
      <g
         id="g854"
         clip-path="url(#clipPath856)">
        <g
           id="g860"
           transform="translate(132.8306,173.6436)">
          <path
             d="m 0,0 c 0,20.546 -16.656,37.202 -37.202,37.202 -20.546,0 -37.202,-16.656 -37.202,-37.202 0,-20.546 16.656,-37.202 37.202,-37.202 C -16.656,-37.202 0,-20.546 0,0"
             style="fill:#461811;fill-opacity:1;fill-rule:nonzero;stroke:none"
             id="path862"
             inkscape:connector-curvature="0" />
        </g>
        <g
           id="g864"
           transform="translate(108.0747,93.9766)">
          <path
             d="M 0,0 -12.604,-35.355 -24.893,0 l 0,27.295 L 0,27.295 0,0 Z"
             style="fill:#eac8ad;fill-opacity:1;fill-rule:nonzero;stroke:none"
             id="path866"
             inkscape:connector-curvature="0" />
        </g>
        <g
           id="g868"
           transform="translate(95.6279,196.9199)">
          <path
             d="m 0,0 c -12.086,0 -31.199,-6.871 -31.199,-39.066 0,-18.59 7.245,-27.355 9.886,-30.724 2.43,-3.099 14.904,-13.118 21.313,-13.118 L 0,0 Z"
             style="fill:#f2d7bc;fill-opacity:1;fill-rule:nonzero;stroke:none"
             id="path870"
             inkscape:connector-curvature="0" />
        </g>
        <g
           id="g872"
           transform="translate(58.416,150.1758)">
          <path
             d="M 0,0 C -0.532,5.145 1.919,9.71 5.474,10.197 9.031,10.686 12.345,6.91 12.878,1.766 13.412,-3.377 10.96,-7.941 7.404,-8.43 3.848,-8.916 0.533,-5.143 0,0"
             style="fill:#f2d7bc;fill-opacity:1;fill-rule:nonzero;stroke:none"
             id="path874"
             inkscape:connector-curvature="0" />
        </g>
        <g
           id="g876"
           transform="translate(95.5293,196.9199)">
          <path
             d="m 0,0 c 12.086,0 31.2,-6.871 31.2,-39.066 0,-18.59 -7.246,-27.355 -9.887,-30.724 C 18.883,-72.889 6.41,-82.908 0,-82.908 L 0,0 Z"
             style="fill:#eac0a7;fill-opacity:1;fill-rule:nonzero;stroke:none"
             id="path878"
             inkscape:connector-curvature="0" />
        </g>
        <g
           id="g880"
           transform="translate(132.8398,150.1758)">
          <path
             d="M 0,0 C 0.534,5.145 -1.918,9.71 -5.473,10.197 -9.03,10.686 -12.345,6.91 -12.878,1.766 -13.412,-3.377 -10.959,-7.941 -7.403,-8.43 -3.847,-8.916 -0.532,-5.143 0,0"
             style="fill:#eac0a7;fill-opacity:1;fill-rule:nonzero;stroke:none"
             id="path882"
             inkscape:connector-curvature="0" />
        </g>
        <g
           id="g884"
           transform="translate(95.4707,58.6211)">
          <path
             d="m 0,0 0,34 c 0,0 -9.286,2.301 -11.333,9.823 -0.984,3.615 -0.956,6.517 -0.956,6.517 0,0 -20.306,-6.859 -24.838,-13.942 C -40.9,25.17 -41.934,0 -41.934,0 L 0,0 Z"
             style="fill:#eac8ad;fill-opacity:1;fill-rule:nonzero;stroke:none"
             id="path886"
             inkscape:connector-curvature="0" />
        </g>
        <g
           id="g888"
           transform="translate(95.4707,58.6211)">
          <path
             d="m 0,0 0,34 c 0,0 9.287,2.301 11.333,9.823 0.984,3.615 0.956,6.517 0.956,6.517 0,0 20.306,-6.859 24.838,-13.942 C 40.9,25.17 41.934,0 41.934,0 L 0,0 Z"
             style="fill:#eac8ad;fill-opacity:1;fill-rule:nonzero;stroke:none"
             id="path890"
             inkscape:connector-curvature="0" />
        </g>
        <g
           id="g892"
           transform="translate(95.6284,125.3496)">
          <path
             d="m 0,0 c 4.711,0 8.531,2.894 8.531,6.463 l -17.062,0 C -8.531,2.894 -4.711,0 0,0"
             style="fill:#ffffff;fill-opacity:1;fill-rule:nonzero;stroke:none"
             id="path894"
             inkscape:connector-curvature="0" />
        </g>
        <g
           id="g896"
           transform="translate(93.8701,206.1836)">
          <path
             d="m 0,0 c -22.084,0 -28.799,-19.348 -28.799,-28.258 -8.009,-11.133 0.721,-21.092 6.903,-24.592 l 0,5.479 c 0,7.199 6.845,13.865 17.127,12.756 9.214,-0.995 15.016,4.211 19.918,13.065 C 21.201,-9.693 13.648,0 0,0"
             style="fill:#461811;fill-opacity:1;fill-rule:nonzero;stroke:none"
             id="path898"
             inkscape:connector-curvature="0" />
        </g>
        <g
           id="g900"
           transform="translate(108.0747,188.2734)">
          <path
             d="m 0,0 c 0,0 5.16,-20.949 19.292,-27.9 2.515,18.833 4.001,14.866 0,24.783 C 15.291,6.799 0,14.166 0,14.166 L 0,0 Z"
             style="fill:#461811;fill-opacity:1;fill-rule:nonzero;stroke:none"
             id="path902"
             inkscape:connector-curvature="0" />
        </g>
        <g
           id="g904"
           transform="translate(95.4707,58.6211)">
          <path
             d="m 0,0 0,45.217 -12.289,5.123 c 0,0 -20.306,-6.859 -24.838,-13.942 C -40.9,25.17 -41.934,0 -41.934,0 L 0,0 Z"
             style="fill:#f1f2f2;fill-opacity:1;fill-rule:nonzero;stroke:none"
             id="path906"
             inkscape:connector-curvature="0" />
        </g>
        <g
           id="g908"
           transform="translate(95.4707,58.6211)">
          <path
             d="m 0,0 0,45.217 12.289,5.123 c 0,0 20.306,-6.859 24.838,-13.942 C 40.9,25.17 41.934,0 41.934,0 L 0,0 Z"
             style="fill:#e6e7e8;fill-opacity:1;fill-rule:nonzero;stroke:none"
             id="path910"
             inkscape:connector-curvature="0" />
        </g>
        <g
           id="g912"
           transform="translate(88.6465,204.5596)">
          <path
             d="m 0,0 c 0,0 -18.892,29.183 -42.092,6.517 -23.2,-22.668 3.616,-64.649 -10.362,-71.259 15.256,1.973 19.019,23.573 17.523,42.585 -1.321,16.81 13.412,24.933 24.883,18.049 C -5.231,-6.999 0,0 0,0"
             style="fill:#461811;fill-opacity:1;fill-rule:nonzero;stroke:none"
             id="path914"
             inkscape:connector-curvature="0" />
        </g>
        <g
           id="g916"
           transform="translate(95.4697,103.8799)">
          <path
             d="M 0,0 -12.636,5.081 -15.75,1.921 -9.462,-12.024 0,0 Z"
             style="fill:#ffffff;fill-opacity:1;fill-rule:nonzero;stroke:none"
             id="path918"
             inkscape:connector-curvature="0" />
        </g>
        <g
           id="g920"
           transform="translate(95.4697,103.8799)">
          <path
             d="M 0,0 12.638,5.081 15.751,1.921 9.463,-12.024 0,0 Z"
             style="fill:#ffffff;fill-opacity:1;fill-rule:nonzero;stroke:none"
             id="path922"
             inkscape:connector-curvature="0" />
        </g>
      </g>
    </g>
  </g>
</svg>
