<?xml version="1.0" encoding="UTF-8" standalone="no"?>
<!-- Created with Inkscape (http://www.inkscape.org/) -->

<svg
   xmlns:dc="http://purl.org/dc/elements/1.1/"
   xmlns:cc="http://creativecommons.org/ns#"
   xmlns:rdf="http://www.w3.org/1999/02/22-rdf-syntax-ns#"
   xmlns:svg="http://www.w3.org/2000/svg"
   xmlns="http://www.w3.org/2000/svg"
   xmlns:sodipodi="http://sodipodi.sourceforge.net/DTD/sodipodi-0.dtd"
   xmlns:inkscape="http://www.inkscape.org/namespaces/inkscape"
   width="210mm"
   height="297mm"
   viewBox="0 0 744.09448819 1052.3622047"
   id="svg4774"
   version="1.1"
   inkscape:version="0.91 r13725"
   sodipodi:docname="drinks.svg">
  <defs
     id="defs4776" />
  <sodipodi:namedview
     id="base"
     pagecolor="#ffffff"
     bordercolor="#666666"
     borderopacity="1.0"
     inkscape:pageopacity="0.0"
     inkscape:pageshadow="2"
     inkscape:zoom="0.35"
     inkscape:cx="375"
     inkscape:cy="520"
     inkscape:document-units="px"
     inkscape:current-layer="layer1"
     showgrid="false"
     inkscape:window-width="1600"
     inkscape:window-height="837"
     inkscape:window-x="-8"
     inkscape:window-y="-8"
     inkscape:window-maximized="1" />
  <metadata
     id="metadata4779">
    <rdf:RDF>
      <cc:Work
         rdf:about="">
        <dc:format>image/svg+xml</dc:format>
        <dc:type
           rdf:resource="http://purl.org/dc/dcmitype/StillImage" />
        <dc:title></dc:title>
      </cc:Work>
    </rdf:RDF>
  </metadata>
  <g
     inkscape:label="Layer 1"
     inkscape:groupmode="layer"
     id="layer1">
    <path
       d="m 358.57359,372.36221 c 0,87.57786 -70.99563,158.57354 -158.57363,158.57354 -87.57788,0 -158.573555,-70.99568 -158.573555,-158.57354 0,-87.57787 70.995675,-158.57354 158.573555,-158.57354 87.578,0 158.57363,70.99567 158.57363,158.57354"
       style="fill:#de8787;fill-opacity:1;fill-rule:nonzero;stroke:none"
       id="path24"
       inkscape:connector-curvature="0" />
    <path
       d="m 227.36247,412.57342 71.65624,0 0,-96.42137 -71.65624,0 0,96.42137 z"
       style="fill:#dff4eb;fill-opacity:1;fill-rule:nonzero;stroke:none"
       id="path90"
       inkscape:connector-curvature="0" />
    <path
       d="m 227.36247,412.57342 35.48237,0 0,-96.42137 -35.48237,0 0,96.42137 z"
       style="fill:#cdecde;fill-opacity:1;fill-rule:nonzero;stroke:none"
       id="path92"
       inkscape:connector-curvature="0" />
    <path
       d="m 229.56497,412.57342 66.99512,0 0,-96.42137 -66.99512,0 0,96.42137 z"
       style="fill:#f7bd0a;fill-opacity:1;fill-rule:nonzero;stroke:none"
       id="path94"
       inkscape:connector-curvature="0" />
    <path
       d="m 229.56497,318.25967 66.99512,0 0,-2.10742 -66.99512,0 0,2.10742 z"
       style="fill:#e9a610;fill-opacity:1;fill-rule:nonzero;stroke:none"
       id="path96"
       inkscape:connector-curvature="0" />
    <path
       d="m 227.36247,419.42217 71.65624,0 0,-6.84864 -71.65624,0 0,6.84864 z"
       style="fill:#dff4eb;fill-opacity:1;fill-rule:nonzero;stroke:none"
       id="path98"
       inkscape:connector-curvature="0" />
    <path
       d="m 299.01871,282.58842 c 0,-5.6425 -4.04125,-10.2175 -9.0275,-10.2175 -2.89,0 -5.435,1.56625 -7.08625,3.9575 -2.48125,-2.45625 -5.72,-3.9575 -9.27625,-3.9575 -2.04625,0 -3.98625,0.505 -5.74125,1.39125 -2.52625,-4.3 -6.84375,-7.1375 -11.75,-7.1375 -7.175,0 -13.08625,6.06875 -13.97625,13.91375 -1.56875,-1.48875 -3.56375,-2.42 -5.77124,-2.42 -4.98625,0 -9.37875,4.99375 -9.37875,10.63625 0,8.49875 4.3925,9.79625 9.37875,9.79625 3.82999,0 6.17374,-0.78375 7.48499,-4.5925 2.56875,3.94625 7.6,4.5925 12.2625,4.5925 2.04625,0 3.98625,-0.50375 5.74125,-1.39125 2.5275,4.30125 6.84375,7.1375 11.75,7.1375 5.035,0 9.42875,-3.00125 11.92,-7.49625 1.40125,1.7975 3.47875,2.965 5.83,2.965 4.22,0 7.64,-3.67875 7.64,-8.215 0,-1.53375 -0.41625,-2.95125 -1.09625,-4.18 0.6775,-1.4325 1.09625,-3.045 1.09625,-4.7825"
       style="fill:#ffffff;fill-opacity:1;fill-rule:nonzero;stroke:none"
       id="path100"
       inkscape:connector-curvature="0" />
    <path
       d="m 261.73621,293.47342 c -1.16625,-0.4475 -2.41,0.42375 -2.41,1.6725 l 0,2.98375 c 0.885,-0.23375 1.73875,-0.55875 2.5525,-0.97 0.2975,0.50625 0.62125,0.99 0.96625,1.45375 l 0,-4.73625 c -0.395,-0.1375 -0.76875,-0.27375 -1.10875,-0.40375"
       style="fill:#f7f5f6;fill-opacity:1;fill-rule:nonzero;stroke:none"
       id="path102"
       inkscape:connector-curvature="0" />
    <path
       d="m 262.84496,292.44217 0,-23.89625 c -1.995,-1.22375 -4.27875,-1.92125 -6.7075,-1.92125 -7.175,0 -13.08625,6.0675 -13.97625,13.91375 -1.56875,-1.48875 -3.56374,-2.42 -5.77124,-2.42 -4.98625,0 -9.37875,4.99375 -9.37875,10.63625 0,8.49875 4.3925,9.79625 9.37875,9.79625 3.1675,0 5.31624,-0.54125 6.70749,-2.88125 -1.0025,0.1075 -1.685,0.11 -1.685,0.11 -7.06874,-0.3075 -11.23999,-3.3375 -11.23999,-3.3375 l 25.81374,0 c -2.59625,0 -5.21875,0.4725 -7.49625,1.71875 -1.0825,0.5925 -2.32125,0.9675 -3.45625,1.205 2.75125,2.69625 7.06375,3.185 11.10375,3.185 l 0.0275,-0.001 0,-6.1075 6.68,0"
       style="fill:#f7f5f6;fill-opacity:1;fill-rule:nonzero;stroke:none"
       id="path104"
       inkscape:connector-curvature="0" />
    <path
       d="m 227.36247,316.15217 71.65624,0 0,-23.71 -71.65624,0 0,23.71 z"
       style="fill:#dff4eb;fill-opacity:1;fill-rule:nonzero;stroke:none"
       id="path106"
       inkscape:connector-curvature="0" />
    <path
       d="m 229.56497,412.57342 33.27974,0 0,-94.314 -33.27974,0 0,94.314 z"
       style="fill:#f1b00d;fill-opacity:1;fill-rule:nonzero;stroke:none"
       id="path108"
       inkscape:connector-curvature="0" />
    <path
       d="m 229.56497,318.25967 33.27974,0 0,-2.10742 -33.27974,0 0,2.10742 z"
       style="fill:#e19a14;fill-opacity:1;fill-rule:nonzero;stroke:none"
       id="path110"
       inkscape:connector-curvature="0" />
    <path
       d="m 227.36247,419.42217 35.48237,0 0,-6.84864 -35.48237,0 0,6.84864 z"
       style="fill:#cdecde;fill-opacity:1;fill-rule:nonzero;stroke:none"
       id="path112"
       inkscape:connector-curvature="0" />
    <path
       d="m 227.36247,316.15217 35.48237,0 0,-23.71 -35.48237,0 0,23.71 z"
       style="fill:#cdecde;fill-opacity:1;fill-rule:nonzero;stroke:none"
       id="path114"
       inkscape:connector-curvature="0" />
    <path
       d="m 256.16496,292.44217 0,40.57125 c 0,1.175 0.95375,2.12875 2.13,2.12875 1.17625,0 2.13,-0.95375 2.13,-2.12875 0,-0.795 -0.45375,-1.46 -1.09875,-1.82625 l 0,-36.04125 c 0,-1.24875 1.24375,-2.12 2.41,-1.6725 0.7425,0.28375 1.62625,0.595 2.60875,0.89125 3.2775,0.9875 6.8275,0.93375 10.0325,-0.27 0.11625,-0.0437 0.2325,-0.0888 0.34875,-0.135 1.575,-0.62625 3.405,-0.32875 4.55625,0.91375 0.64125,0.6925 1.48875,1.44 2.5825,2.105 3.7675,2.29625 8.72,2.0125 12.13625,-0.78125 1.15,-0.94125 2.1325,-2.17 2.55875,-3.755 l -40.395,0"
       style="fill:#ffffff;fill-opacity:1;fill-rule:nonzero;stroke:none"
       id="path116"
       inkscape:connector-curvature="0" />
    <path
       d="m 241.41246,295.77967 c 0,0 4.12,0 7.0775,-1.61875 2.2775,-1.24625 4.9,-1.71875 7.49625,-1.71875 l -25.81374,0 c 0,0 4.17125,3.03 11.23999,3.3375"
       style="fill:#ffffff;fill-opacity:1;fill-rule:nonzero;stroke:none"
       id="path118"
       inkscape:connector-curvature="0" />
    <path
       d="m 256.16496,333.01342 c 0,1.175 0.95375,2.12875 2.13,2.12875 1.17625,0 2.13,-0.95375 2.13,-2.12875 0,-0.795 -0.45375,-1.46 -1.09875,-1.82625 l 0,-33.0575 c -1.015,0.27 -2.0725,0.4175 -3.16125,0.42 l 0,34.46375"
       style="fill:#f7f5f6;fill-opacity:1;fill-rule:nonzero;stroke:none"
       id="path120"
       inkscape:connector-curvature="0" />
    <path
       d="m 261.73621,293.47342 c 0.34,0.13 0.71375,0.26625 1.10875,0.40375 l 0,-1.435 -6.68,0 0,6.1075 c 1.08875,-0.003 2.14625,-0.15 3.16125,-0.42 l 0,-2.98375 c 0,-1.24875 1.24375,-2.12 2.41,-1.6725"
       style="fill:#f7f5f6;fill-opacity:1;fill-rule:nonzero;stroke:none"
       id="path122"
       inkscape:connector-curvature="0" />
    <path
       d="m 243.87496,293.95842 c -0.22625,0.65875 -0.48625,1.22125 -0.7775,1.71125 0.56375,-0.0612 1.2275,-0.155 1.93625,-0.30375 -0.425,-0.41625 -0.815,-0.88 -1.15875,-1.4075"
       style="fill:#f7f5f6;fill-opacity:1;fill-rule:nonzero;stroke:none"
       id="path124"
       inkscape:connector-curvature="0" />
    <path
       d="m 255.98621,292.44217 -25.81374,0 c 0,0 4.17125,3.03 11.23999,3.3375 0,0 0.6825,-0.002 1.685,-0.11 0.29125,-0.49 0.55125,-1.0525 0.7775,-1.71125 0.34375,0.5275 0.73375,0.99125 1.15875,1.4075 1.135,-0.2375 2.37375,-0.6125 3.45625,-1.205 2.2775,-1.24625 4.9,-1.71875 7.49625,-1.71875"
       style="fill:#f7f5f6;fill-opacity:1;fill-rule:nonzero;stroke:none"
       id="path126"
       inkscape:connector-curvature="0" />
    <path
       d="m 227.36247,338.28217 c 0,0 -13.5475,-8.085 -19.94625,3.80375 -1.17501,2.1825 -1.81,4.60875 -2.02752,7.07625 -0.71625,8.11625 -0.56126,30.05125 21.97377,30.48 l 0,8.9575 c 0,0 -28.22127,-2.075 -30.51877,-30.71875 -0.64375,-8.02875 1.27375,-16.11 5.48874,-22.97375 0.98251,-1.59875 2.08626,-3.1375 3.29003,-4.41375 0.83875,-0.89125 1.19124,-2.1325 0.97875,-3.33875 l -0.0687,-0.39 c -0.1075,-0.6075 0.4525,-1.0075 0.92249,-0.74875 l 3.53875,1.94875 c 0.65501,0.36 1.3925,0.54125 2.14,0.51625 2.83626,-0.095 10.42,-0.0625 14.22876,2.6875 l 0,7.11375"
       style="fill:#dff4eb;fill-opacity:1;fill-rule:nonzero;stroke:none"
       id="path128"
       inkscape:connector-curvature="0" />
    <path
       d="m 227.36247,338.28217 c 0,0 -13.5475,-8.085 -19.94625,3.80375 -1.17501,2.1825 -1.81,4.60875 -2.02752,7.07625 -0.71625,8.11625 -0.56126,30.05125 21.97377,30.48 l 0,8.9575 c 0,0 -28.22127,-2.075 -30.51877,-30.71875 -0.64375,-8.02875 1.27375,-16.11 5.48874,-22.97375 0.98251,-1.59875 2.08626,-3.1375 3.29003,-4.41375 0.83875,-0.89125 1.19124,-2.1325 0.97875,-3.33875 l -0.0687,-0.39 c -0.1075,-0.6075 0.4525,-1.0075 0.92249,-0.74875 l 3.53875,1.94875 c 0.65501,0.36 1.3925,0.54125 2.14,0.51625 2.83626,-0.095 10.42,-0.0625 14.22876,2.6875 l 0,7.11375"
       style="fill:#cdecde;fill-opacity:1;fill-rule:nonzero;stroke:none"
       id="path130"
       inkscape:connector-curvature="0" />
    <path
       d="m 266.97746,358.19342 c 0,0.76125 -0.6175,1.3775 -1.3775,1.3775 -0.76125,0 -1.3775,-0.61625 -1.3775,-1.3775 0,-0.76 0.61625,-1.3775 1.3775,-1.3775 0.76,0 1.3775,0.6175 1.3775,1.3775"
       style="fill:#e9a610;fill-opacity:1;fill-rule:nonzero;stroke:none"
       id="path132"
       inkscape:connector-curvature="0" />
    <path
       d="m 275.40746,353.97842 c 0,0.76125 -0.6175,1.3775 -1.3775,1.3775 -0.76125,0 -1.3775,-0.61625 -1.3775,-1.3775 0,-0.76 0.61625,-1.3775 1.3775,-1.3775 0.76,0 1.3775,0.6175 1.3775,1.3775"
       style="fill:#e9a610;fill-opacity:1;fill-rule:nonzero;stroke:none"
       id="path134"
       inkscape:connector-curvature="0" />
    <path
       d="m 272.65246,374.81217 c 0,0.76125 -0.61625,1.3775 -1.3775,1.3775 -0.76,0 -1.3775,-0.61625 -1.3775,-1.3775 0,-0.76 0.6175,-1.37625 1.3775,-1.37625 0.76125,0 1.3775,0.61625 1.3775,1.37625"
       style="fill:#e9a610;fill-opacity:1;fill-rule:nonzero;stroke:none"
       id="path136"
       inkscape:connector-curvature="0" />
    <path
       d="m 266.97746,345.65842 c 0,0.76 -0.6175,1.3775 -1.3775,1.3775 -0.76125,0 -1.3775,-0.6175 -1.3775,-1.3775 0,-0.76125 0.61625,-1.3775 1.3775,-1.3775 0.76,0 1.3775,0.61625 1.3775,1.3775"
       style="fill:#e9a610;fill-opacity:1;fill-rule:nonzero;stroke:none"
       id="path138"
       inkscape:connector-curvature="0" />
    <path
       d="m 274.02996,333.76467 c 0,0.76125 -0.61625,1.3775 -1.3775,1.3775 -0.76,0 -1.3775,-0.61625 -1.3775,-1.3775 0,-0.76 0.6175,-1.37625 1.3775,-1.37625 0.76125,0 1.3775,0.61625 1.3775,1.37625"
       style="fill:#e9a610;fill-opacity:1;fill-rule:nonzero;stroke:none"
       id="path140"
       inkscape:connector-curvature="0" />
    <path
       d="m 257.54246,374.81217 c 0,0.76125 -0.61625,1.3775 -1.3775,1.3775 -0.76,0 -1.37625,-0.61625 -1.37625,-1.3775 0,-0.76 0.61625,-1.37625 1.37625,-1.37625 0.76125,0 1.3775,0.61625 1.3775,1.37625"
       style="fill:#e39914;fill-opacity:1;fill-rule:nonzero;stroke:none"
       id="path142"
       inkscape:connector-curvature="0" />
    <path
       d="m 286.31746,359.57092 c 0,0.76125 -0.61625,1.3775 -1.37625,1.3775 -0.76125,0 -1.3775,-0.61625 -1.3775,-1.3775 0,-0.76 0.61625,-1.3775 1.3775,-1.3775 0.76,0 1.37625,0.6175 1.37625,1.3775"
       style="fill:#e9a610;fill-opacity:1;fill-rule:nonzero;stroke:none"
       id="path144"
       inkscape:connector-curvature="0" />
    <path
       d="m 286.31746,336.51967 c 0,0.76 -0.61625,1.3775 -1.37625,1.3775 -0.76125,0 -1.3775,-0.6175 -1.3775,-1.3775 0,-0.76125 0.61625,-1.3775 1.3775,-1.3775 0.76,0 1.37625,0.61625 1.37625,1.3775"
       style="fill:#e9a610;fill-opacity:1;fill-rule:nonzero;stroke:none"
       id="path146"
       inkscape:connector-curvature="0" />
    <path
       d="m 282.18621,387.22217 c 0,0.76125 -0.61625,1.3775 -1.3775,1.3775 -0.76,0 -1.3775,-0.61625 -1.3775,-1.3775 0,-0.76 0.6175,-1.3775 1.3775,-1.3775 0.76125,0 1.3775,0.6175 1.3775,1.3775"
       style="fill:#e9a610;fill-opacity:1;fill-rule:nonzero;stroke:none"
       id="path148"
       inkscape:connector-curvature="0" />
    <path
       d="m 271.27496,395.91592 c 0,0.76125 -0.61625,1.3775 -1.3775,1.3775 -0.76,0 -1.37625,-0.61625 -1.37625,-1.3775 0,-0.76 0.61625,-1.3775 1.37625,-1.3775 0.76125,0 1.3775,0.6175 1.3775,1.3775"
       style="fill:#e9a610;fill-opacity:1;fill-rule:nonzero;stroke:none"
       id="path150"
       inkscape:connector-curvature="0" />
    <path
       d="m 262.84496,406.45342 c 0,0.76125 -0.61625,1.3775 -1.3775,1.3775 -0.76,0 -1.37625,-0.61625 -1.37625,-1.3775 0,-0.76 0.61625,-1.3775 1.37625,-1.3775 0.76125,0 1.3775,0.6175 1.3775,1.3775"
       style="fill:#e39914;fill-opacity:1;fill-rule:nonzero;stroke:none"
       id="path152"
       inkscape:connector-curvature="0" />
    <path
       d="m 291.26371,374.81217 c 0,0.76125 -0.61625,1.3775 -1.3775,1.3775 -0.76125,0 -1.3775,-0.61625 -1.3775,-1.3775 0,-0.76 0.61625,-1.37625 1.3775,-1.37625 0.76125,0 1.3775,0.61625 1.3775,1.37625"
       style="fill:#e9a610;fill-opacity:1;fill-rule:nonzero;stroke:none"
       id="path154"
       inkscape:connector-curvature="0" />
    <path
       d="m 286.31746,405.07592 c 0,0.76125 -0.61625,1.3775 -1.37625,1.3775 -0.76125,0 -1.3775,-0.61625 -1.3775,-1.3775 0,-0.76 0.61625,-1.37625 1.3775,-1.37625 0.76,0 1.37625,0.61625 1.37625,1.37625"
       style="fill:#e9a610;fill-opacity:1;fill-rule:nonzero;stroke:none"
       id="path156"
       inkscape:connector-curvature="0" />
    <path
       d="m 284.94121,323.99592 c 0,0.76 -0.6175,1.3775 -1.3775,1.3775 -0.76125,0 -1.3775,-0.6175 -1.3775,-1.3775 0,-0.76125 0.61625,-1.3775 1.3775,-1.3775 0.76,0 1.3775,0.61625 1.3775,1.3775"
       style="fill:#e9a610;fill-opacity:1;fill-rule:nonzero;stroke:none"
       id="path158"
       inkscape:connector-curvature="0" />
    <path
       d="m 248.76121,328.79717 c 0,0.76125 -0.61625,1.3775 -1.3775,1.3775 -0.76,0 -1.3775,-0.61625 -1.3775,-1.3775 0,-0.76 0.6175,-1.37625 1.3775,-1.37625 0.76125,0 1.3775,0.61625 1.3775,1.37625"
       style="fill:#e39914;fill-opacity:1;fill-rule:nonzero;stroke:none"
       id="path160"
       inkscape:connector-curvature="0" />
    <path
       d="m 239.27747,337.89717 c 0,0.76 -0.6175,1.3775 -1.3775,1.3775 -0.76125,0 -1.3775,-0.6175 -1.3775,-1.3775 0,-0.76125 0.61625,-1.3775 1.3775,-1.3775 0.76,0 1.3775,0.61625 1.3775,1.3775"
       style="fill:#e39914;fill-opacity:1;fill-rule:nonzero;stroke:none"
       id="path162"
       inkscape:connector-curvature="0" />
    <path
       d="m 250.13871,345.61467 c 0,0.76 -0.6175,1.37625 -1.3775,1.37625 -0.76125,0 -1.3775,-0.61625 -1.3775,-1.37625 0,-0.76125 0.61625,-1.3775 1.3775,-1.3775 0.76,0 1.3775,0.61625 1.3775,1.3775"
       style="fill:#e39914;fill-opacity:1;fill-rule:nonzero;stroke:none"
       id="path164"
       inkscape:connector-curvature="0" />
    <path
       d="m 245.83371,364.36217 c 0,0.76125 -0.6175,1.3775 -1.3775,1.3775 -0.76125,0 -1.3775,-0.61625 -1.3775,-1.3775 0,-0.76 0.61625,-1.37625 1.3775,-1.37625 0.76,0 1.3775,0.61625 1.3775,1.37625"
       style="fill:#e39914;fill-opacity:1;fill-rule:nonzero;stroke:none"
       id="path166"
       inkscape:connector-curvature="0" />
    <path
       d="m 251.51621,388.59967 c 0,0.76 -0.6175,1.3775 -1.3775,1.3775 -0.76125,0 -1.3775,-0.6175 -1.3775,-1.3775 0,-0.76125 0.61625,-1.3775 1.3775,-1.3775 0.76,0 1.3775,0.61625 1.3775,1.3775"
       style="fill:#e39914;fill-opacity:1;fill-rule:nonzero;stroke:none"
       id="path168"
       inkscape:connector-curvature="0" />
    <path
       d="m 242.03121,376.18967 c 0,0.76125 -0.61625,1.3775 -1.37625,1.3775 -0.76124,0 -1.37749,-0.61625 -1.37749,-1.3775 0,-0.76 0.61625,-1.3775 1.37749,-1.3775 0.76,0 1.37625,0.6175 1.37625,1.3775"
       style="fill:#e39914;fill-opacity:1;fill-rule:nonzero;stroke:none"
       id="path170"
       inkscape:connector-curvature="0" />
    <path
       d="m 250.13871,402.32217 c 0,0.76 -0.6175,1.3775 -1.3775,1.3775 -0.76125,0 -1.3775,-0.6175 -1.3775,-1.3775 0,-0.76125 0.61625,-1.3775 1.3775,-1.3775 0.76,0 1.3775,0.61625 1.3775,1.3775"
       style="fill:#e39914;fill-opacity:1;fill-rule:nonzero;stroke:none"
       id="path172"
       inkscape:connector-curvature="0" />
    <path
       d="m 242.03121,351.22467 c 0,0.76 -0.61625,1.37625 -1.37625,1.37625 -0.76124,0 -1.37749,-0.61625 -1.37749,-1.37625 0,-0.76125 0.61625,-1.3775 1.37749,-1.3775 0.76,0 1.37625,0.61625 1.37625,1.3775"
       style="fill:#e39914;fill-opacity:1;fill-rule:nonzero;stroke:none"
       id="path174"
       inkscape:connector-curvature="0" />
    <path
       d="m 237.89996,391.35467 c 0,0.76 -0.61624,1.37625 -1.3775,1.37625 -0.75999,0 -1.37749,-0.61625 -1.37749,-1.37625 0,-0.76125 0.6175,-1.3775 1.37749,-1.3775 0.76126,0 1.3775,0.61625 1.3775,1.3775"
       style="fill:#e39914;fill-opacity:1;fill-rule:nonzero;stroke:none"
       id="path176"
       inkscape:connector-curvature="0" />
    <path
       d="m 265.59996,323.31967 c 0,0.76 -0.6175,1.3775 -1.3775,1.3775 -0.76125,0 -1.3775,-0.6175 -1.3775,-1.3775 0,-0.76125 0.61625,-1.3775 1.3775,-1.3775 0.76,0 1.3775,0.61625 1.3775,1.3775"
       style="fill:#e9a610;fill-opacity:1;fill-rule:nonzero;stroke:none"
       id="path178"
       inkscape:connector-curvature="0" />
    <path
       d="m 291.26371,345.61467 c 0,0.76 -0.61625,1.37625 -1.3775,1.37625 -0.76,0 -1.3775,-0.61625 -1.3775,-1.37625 0,-0.76125 0.6175,-1.3775 1.3775,-1.3775 0.76125,0 1.3775,0.61625 1.3775,1.3775"
       style="fill:#e9a610;fill-opacity:1;fill-rule:nonzero;stroke:none"
       id="path180"
       inkscape:connector-curvature="0" />
    <path
       d="m 293.21121,300.34717 0,13.445 c 0,0.345 0.28,0.625 0.625,0.625 0.345,0 0.625,-0.28 0.625,-0.625 l 0,-13.445 c 0,-0.34625 -0.28,-0.625 -0.625,-0.625 -0.345,0 -0.625,0.27875 -0.625,0.625"
       style="fill:#fffafd;fill-opacity:1;fill-rule:nonzero;stroke:none"
       id="path182"
       inkscape:connector-curvature="0" />
    <path
       d="m 293.21121,323.96092 0,6.85625 c 0,0.345 0.28,0.625 0.625,0.625 0.345,0 0.625,-0.28 0.625,-0.625 l 0,-6.85625 c 0,-0.345 -0.28,-0.625 -0.625,-0.625 -0.345,0 -0.625,0.28 -0.625,0.625"
       style="fill:#fbf7d4;fill-opacity:1;fill-rule:nonzero;stroke:none"
       id="path184"
       inkscape:connector-curvature="0" />
    <path
       d="m 293.21121,337.16092 0,58.02 c 0,0.345 0.28,0.625 0.625,0.625 0.345,0 0.625,-0.28 0.625,-0.625 l 0,-58.02 c 0,-0.345 -0.28,-0.625 -0.625,-0.625 -0.345,0 -0.625,0.28 -0.625,0.625"
       style="fill:#fbf7d4;fill-opacity:1;fill-rule:nonzero;stroke:none"
       id="path186"
       inkscape:connector-curvature="0" />
    <path
       d="m 157.17898,338.27002 c 13.19001,-8.0125 25.4475,-26.04625 8.30875,-66.465 l -56.1325,0 c 0,0 -22.7025,48.97125 8.59125,66.87 5.475,3.1325 11.57875,4.81625 17.72375,5.0675 l 0,65.30875 -3.3675,0 c -6.0475,0 -11.85625,2.35875 -16.19,6.575 l -0.695,0.67625 44.29125,0 -0.96125,-0.90875 c -4.31125,-4.07375 -10.0175,-6.3425 -15.9475,-6.3425 l -3.18375,0 0,-65.345 c 6.13001,-0.3675 12.17876,-2.16625 17.5625,-5.43625"
       style="fill:#dff4eb;fill-opacity:1;fill-rule:nonzero;stroke:none"
       id="path396"
       inkscape:connector-curvature="0" />
    <path
       d="m 105.05648,309.95752 c 0.62875,9.9625 4.4025,19.7375 14.81875,25.695 10.93,6.25125 24.63,6.17125 35.3925,-0.36625 7.16375,-4.35125 14.0125,-11.98875 14.96375,-25.32875 l -65.175,0"
       style="fill:#5f182d;fill-opacity:1;fill-rule:nonzero;stroke:none"
       id="path398"
       inkscape:connector-curvature="0" />
    <path
       d="m 119.87523,335.65252 c -10.41625,-5.9575 -14.19,-15.7325 -14.81875,-25.695 l 32.62125,0 0.01,-38.1525 -28.3325,0 c 0,0 -22.7025,48.97125 8.59125,66.87 5.475,3.1325 11.57875,4.81625 17.72375,5.0675 l 0,65.30875 -3.3675,0 c -6.0475,0 -11.85625,2.35875 -16.19,6.575 l -0.695,0.67625 22.2325,0 0.02,-76.03875 c -6.14875,0.0625 -12.31875,-1.47875 -17.795,-4.61125"
       style="fill:#cdecde;fill-opacity:1;fill-rule:nonzero;stroke:none"
       id="path400"
       inkscape:connector-curvature="0" />
    <path
       d="m 119.87523,335.65252 c 5.47625,3.1325 11.64625,4.67375 17.795,4.61125 l 0.007,-30.30625 -32.62125,0 c 0.62875,9.9625 4.4025,19.7375 14.81875,25.695"
       style="fill:#4f1b2a;fill-opacity:1;fill-rule:nonzero;stroke:none"
       id="path402"
       inkscape:connector-curvature="0" />
    <path
       d="m 161.28273,276.42377 c 0,0 0.0988,0.2425 0.27501,0.69625 1.2375,3.16625 6.23125,16.57625 6.76375,26.39375 0.0188,0.345 0.31375,0.60875 0.6575,0.59 0.345,-0.0187 0.60875,-0.31375 0.59,-0.6575 -0.32125,-5.8 -2.105,-12.65 -3.80375,-18.075 -1.70126,-5.4225 -3.32,-9.4075 -3.32375,-9.41875 -0.13001,-0.31875 -0.495,-0.4725 -0.81501,-0.34375 -0.31999,0.13 -0.47375,0.495 -0.34375,0.815"
       style="fill:#fbfdfc;fill-opacity:1;fill-rule:nonzero;stroke:none"
       id="path404"
       inkscape:connector-curvature="0" />
    <path
       d="m 173.47252,377.04193 c -0.0513,12.39875 -10.14375,22.40875 -22.5425,22.3575 -12.3975,-0.05 -22.4075,-10.1425 -22.3575,-22.54125 0.0513,-12.3975 10.14375,-22.4075 22.5425,-22.3575 12.3975,0.0513 22.4075,10.14375 22.3575,22.54125"
       style="fill:#f69510;fill-opacity:1;fill-rule:nonzero;stroke:none"
       id="path406"
       inkscape:connector-curvature="0" />
    <path
       d="m 171.08752,377.03318 c -0.0463,11.08125 -9.06625,20.0275 -20.1475,19.9825 -11.08125,-0.0463 -20.0275,-9.06625 -19.9825,-20.1475 0.045,-11.08125 9.06625,-20.0275 20.1475,-19.9825 11.08125,0.045 20.02749,9.065 19.9825,20.1475"
       style="fill:#fce19e;fill-opacity:1;fill-rule:nonzero;stroke:none"
       id="path408"
       inkscape:connector-curvature="0" />
    <path
       d="m 138.12752,365.74443 c -2.47875,2.84875 -4.02,6.5225 -4.17125,10.56125 l 15.6925,0.065 -11.52125,-10.62625"
       style="fill:#f69510;fill-opacity:1;fill-rule:nonzero;stroke:none"
       id="path410"
       inkscape:connector-curvature="0" />
    <path
       d="m 150.68252,359.87193 c -4.59875,0.09 -8.75625,1.98625 -11.77875,5.025 l 11.71375,10.8025 0.065,-15.8275"
       style="fill:#f69510;fill-opacity:1;fill-rule:nonzero;stroke:none"
       id="path412"
       inkscape:connector-curvature="0" />
    <path
       d="m 133.95127,377.45568 c 0.1225,4.2075 1.7625,8.02875 4.4,10.945 l 11.43,-10.88 -15.83,-0.065"
       style="fill:#f69510;fill-opacity:1;fill-rule:nonzero;stroke:none"
       id="path414"
       inkscape:connector-curvature="0" />
    <path
       d="m 163.09252,364.84693 c -2.9125,-2.905 -6.87,-4.7475 -11.26125,-4.95375 l -0.065,15.73625 11.32625,-10.7825"
       style="fill:#f69510;fill-opacity:1;fill-rule:nonzero;stroke:none"
       id="path416"
       inkscape:connector-curvature="0" />
    <path
       d="m 168.09377,376.44568 c -0.12,-4.115 -1.69,-7.86 -4.225,-10.75125 l -11.22625,10.6875 15.45125,0.0638"
       style="fill:#f69510;fill-opacity:1;fill-rule:nonzero;stroke:none"
       id="path418"
       inkscape:connector-curvature="0" />
    <path
       d="m 139.14627,389.23193 c 2.9675,2.87 6.9675,4.67 11.39625,4.79375 l 0.0637,-15.70375 -11.46,10.91"
       style="fill:#f69510;fill-opacity:1;fill-rule:nonzero;stroke:none"
       id="path420"
       inkscape:connector-curvature="0" />
    <path
       d="m 151.69127,394.01443 c 4.5175,-0.175 8.58625,-2.09 11.545,-5.1125 l -11.48,-10.58875 -0.065,15.70125"
       style="fill:#f69510;fill-opacity:1;fill-rule:nonzero;stroke:none"
       id="path422"
       inkscape:connector-curvature="0" />
    <path
       d="m 152.60377,377.53193 11.40875,10.5225 c 2.425,-2.835 3.9275,-6.47 4.07625,-10.45875 l -15.485,-0.0637"
       style="fill:#f69510;fill-opacity:1;fill-rule:nonzero;stroke:none"
       id="path424"
       inkscape:connector-curvature="0" />
    <path
       d="m 205.47252,492.50943 -1.8075,0 0,-58.9275 51.74619,-57.5825 c 0.28125,-0.3125 0.06,-0.80875 -0.36,-0.80875 l -107.09369,0 c -0.41,0 -0.63375,0.47875 -0.3725,0.795 l 47.97375,57.72375 0,58.8 -1.82,0 c -8.40375,0 -16.61375,2.52625 -23.5625,7.2525 l 58.87245,0 -0.64375,-0.42 c -6.8175,-4.45875 -14.78625,-6.8325 -22.93245,-6.8325"
       style="fill:#dff4eb;fill-opacity:1;fill-rule:nonzero;stroke:none"
       id="path426"
       inkscape:connector-curvature="0" />
    <path
       d="m 161.06252,386.88068 37.40125,44.67375 c 0.615,0.735 1.74375,0.7575 2.38749,0.0462 l 40.4587,-44.6925 c 0.54875,-0.6075 0.115,-1.575 -0.7075,-1.575 l -78.8087,0 c -0.80499,0 -1.24624,0.9325 -0.73124,1.5475"
       style="fill:#de115a;fill-opacity:1;fill-rule:nonzero;stroke:none"
       id="path428"
       inkscape:connector-curvature="0" />
    <path
       d="m 198.46377,431.55443 -37.40125,-44.67375 c -0.515,-0.615 -0.0738,-1.5475 0.73125,-1.5475 l 37.6775,0 0,-10.1425 -51.51375,0 c -0.41,0 -0.63375,0.47875 -0.3725,0.795 l 47.97375,57.72375 0,58.8 -1.82,0 c -8.40375,0 -16.61375,2.52625 -23.5625,7.2525 l 29.295,0 0,-67.6825 c -0.37625,-0.05 -0.7425,-0.2075 -1.0075,-0.525"
       style="fill:#cdecde;fill-opacity:1;fill-rule:nonzero;stroke:none"
       id="path430"
       inkscape:connector-curvature="0" />
    <path
       d="m 161.06252,386.88068 37.40125,44.67375 c 0.26499,0.3175 0.63125,0.475 1.0075,0.525 l 0,-46.74625 -37.67751,0 c -0.80499,0 -1.24624,0.9325 -0.73124,1.5475"
       style="fill:#d01554;fill-opacity:1;fill-rule:nonzero;stroke:none"
       id="path432"
       inkscape:connector-curvature="0" />
    <path
       d="m 214.67997,410.46193 c 2.1975,-2.605 6.68874,-7.64375 10.625,-12.025 1.96875,-2.19125 3.79875,-4.21875 5.1375,-5.6975 1.3375,-1.48 2.18125,-2.41 2.18375,-2.41125 0.2325,-0.25625 0.2125,-0.65125 -0.0425,-0.88375 -0.25625,-0.23125 -0.65125,-0.2125 -0.8825,0.0425 -0.004,0.004 -13.53875,14.91 -17.97625,20.16875 -0.2225,0.26375 -0.18875,0.65875 0.075,0.88125 0.26375,0.2225 0.6575,0.18875 0.88,-0.075"
       style="fill:#f077af;fill-opacity:1;fill-rule:nonzero;stroke:none"
       id="path434"
       inkscape:connector-curvature="0" />
  </g>
</svg>
