<?xml version="1.0" encoding="UTF-8" standalone="no"?>
<!-- Created with Inkscape (http://www.inkscape.org/) -->

<svg
   xmlns:dc="http://purl.org/dc/elements/1.1/"
   xmlns:cc="http://creativecommons.org/ns#"
   xmlns:rdf="http://www.w3.org/1999/02/22-rdf-syntax-ns#"
   xmlns:svg="http://www.w3.org/2000/svg"
   xmlns="http://www.w3.org/2000/svg"
   xmlns:sodipodi="http://sodipodi.sourceforge.net/DTD/sodipodi-0.dtd"
   xmlns:inkscape="http://www.inkscape.org/namespaces/inkscape"
   width="210mm"
   height="297mm"
   viewBox="0 0 744.09448819 1052.3622047"
   id="svg12710"
   version="1.1"
   inkscape:version="0.91 r13725"
   sodipodi:docname="cash.svg">
  <defs
     id="defs12712" />
  <sodipodi:namedview
     id="base"
     pagecolor="#ffffff"
     bordercolor="#666666"
     borderopacity="1.0"
     inkscape:pageopacity="0.0"
     inkscape:pageshadow="2"
     inkscape:zoom="0.35"
     inkscape:cx="375"
     inkscape:cy="520"
     inkscape:document-units="px"
     inkscape:current-layer="layer1"
     showgrid="false"
     inkscape:window-width="1600"
     inkscape:window-height="837"
     inkscape:window-x="-8"
     inkscape:window-y="-8"
     inkscape:window-maximized="1" />
  <metadata
     id="metadata12715">
    <rdf:RDF>
      <cc:Work
         rdf:about="">
        <dc:format>image/svg+xml</dc:format>
        <dc:type
           rdf:resource="http://purl.org/dc/dcmitype/StillImage" />
        <dc:title></dc:title>
      </cc:Work>
    </rdf:RDF>
  </metadata>
  <g
     inkscape:label="Layer 1"
     inkscape:groupmode="layer"
     id="layer1">
    <g
       id="g8910"
       transform="matrix(1.25,0,0,-1.25,284.6575,215.21997)">
      <path
         d="m 0,0 c 0,-55.076 -44.648,-99.726 -99.726,-99.726 -55.077,0 -99.726,44.65 -99.726,99.726 0,55.077 44.649,99.727 99.726,99.727 C -44.648,99.727 0,55.077 0,0"
         style="fill:#3aab62;fill-opacity:1;fill-rule:nonzero;stroke:none"
         id="path8912"
         inkscape:connector-curvature="0" />
    </g>
    <g
       id="g8914"
       transform="matrix(1.25,0,0,-1.25,166.90966,166.09727)">
      <path
         d="M 0,0 C 13.134,0 23.782,10.648 23.782,23.78 23.782,36.915 13.134,47.563 0,47.563 -13.133,47.563 -23.781,36.915 -23.781,23.78 -23.781,10.648 -13.133,0 0,0"
         style="fill:#2e9952;fill-opacity:1;fill-rule:nonzero;stroke:none"
         id="path8916"
         inkscape:connector-curvature="0" />
    </g>
    <g
       id="g8918"
       transform="matrix(1.25,0,0,-1.25,244.6347,214.77147)">
      <path
         d="M 0,0 C -0.776,1.853 -0.766,3.789 -0.216,4.557 0.045,4.952 0.312,5.086 0.565,5.153 0.829,5.208 1.117,5.173 1.547,5.029 1.759,4.937 1.996,4.797 2.245,4.608 2.374,4.498 2.503,4.395 2.552,4.334 2.564,4.357 2.855,4.014 3.05,3.79 L 3.053,3.787 3.119,3.704 3.251,3.541 C 3.336,3.432 3.43,3.325 3.51,3.214 3.673,2.995 3.844,2.777 3.992,2.557 4.305,2.119 4.574,1.679 4.815,1.245 5.291,0.378 5.62,-0.47 5.759,-1.221 5.814,-1.526 5.831,-1.804 5.841,-2.078 4.857,-2.304 3.857,-2.408 2.936,-2.299 2.133,-2.215 1.446,-1.97 1.01,-1.628 0.562,-1.249 0.377,-0.996 0,0 m 3.039,3.806 c -0.04,0.047 -0.008,0.009 0,0 M 17.245,7.851 C 16.61,7.993 15.98,7.594 15.838,6.959 c 0,0 -0.065,-0.297 -0.248,-0.828 C 15.398,5.604 15.101,4.837 14.55,3.957 14.235,3.449 13.82,2.909 13.327,2.36 12.985,3.37 12.564,4.323 12.087,5.208 11.689,5.937 11.26,6.637 10.801,7.291 10.576,7.626 10.337,7.939 10.101,8.257 9.983,8.418 9.858,8.566 9.738,8.721 L 9.555,8.95 9.462,9.066 9.266,9.294 C 9.005,9.568 8.912,9.708 8.417,10.177 7.993,10.599 7.593,10.912 7.192,11.218 6.355,11.827 5.412,12.36 4.358,12.743 2.256,13.519 -0.335,13.525 -2.553,12.515 -3.66,12.024 -4.659,11.3 -5.464,10.435 -6.272,9.568 -6.852,8.548 -7.24,7.525 -8.018,5.458 -8.024,3.395 -7.659,1.648 c 0.354,-1.771 1.035,-3.276 1.805,-4.6 l 0.644,-1.04 c 0.1,-0.147 0.56,-0.808 0.851,-1.107 0.654,-0.731 1.446,-1.342 2.273,-1.789 0.984,-0.527 1.986,-0.826 2.952,-0.977 -0.811,-0.366 -1.654,-0.67 -2.479,-0.921 -1.646,-0.493 -3.259,-0.754 -4.7,-0.922 -0.433,-0.046 -0.846,-0.078 -1.248,-0.102 -7.334,21.441 -30.603,37.117 -58.194,37.117 -11.239,0 -21.757,-2.608 -30.777,-7.14 -7.413,8.906 -21.859,10.28 -24.358,10.452 0,0.001 -0.001,0.001 -0.001,0.001 -0.04,0.003 -0.058,0.004 -0.093,0.006 -0.181,0.012 -0.288,0.017 -0.288,0.017 0,0 -5.788,-17.242 1.849,-28.346 0.286,-0.416 0.579,-0.821 0.876,-1.221 -1.619,-2.438 -3.019,-4.996 -4.161,-7.66 -1.641,-3.831 -5.413,-6.319 -9.581,-6.319 l -0.01,0 0,-0.12 c -0.228,0.07 -0.459,0.119 -0.695,0.119 -2.911,0 -5.273,-5.506 -5.273,-12.298 l 0,-10e-4 0,-0.001 c 0.001,-6.793 2.362,-12.299 5.273,-12.299 0.236,0 0.467,0.049 0.695,0.119 l 0,-0.119 0.012,0 c 4.506,0 8.623,-2.563 10.616,-6.605 3.34,-6.778 8.341,-12.814 14.562,-17.754 l 0,-16.132 0.015,0 c -0.002,-0.047 -0.015,-0.093 -0.015,-0.141 0,-3.217 5.507,-5.825 12.299,-5.825 6.793,0 12.301,2.608 12.301,5.825 0,0.048 -0.013,0.094 -0.015,0.141 l 0.015,0 0,4.266 c 5.321,-1.299 10.94,-2.003 16.754,-2.003 5.355,0 10.545,0.596 15.49,1.705 l 0,-3.968 0.015,0 c -0.002,-0.047 -0.015,-0.093 -0.015,-0.141 0,-3.217 5.507,-5.825 12.3,-5.825 6.793,0 12.3,2.608 12.3,5.825 0,0.048 -0.013,0.094 -0.016,0.141 l 0.016,0 0,15.157 c 12.579,9.44 20.522,23.239 20.522,38.623 0,2.438 -0.213,4.832 -0.599,7.18 1.814,0.057 3.859,0.273 6.091,0.803 2.268,0.542 4.734,1.404 7.213,2.994 1.232,0.801 2.471,1.802 3.565,3.11 1.09,1.304 2.032,2.943 2.537,4.792 0.254,0.914 0.392,1.864 0.427,2.809 0.305,0.326 0.597,0.653 0.863,0.982 1.182,1.435 1.928,2.905 2.406,4.149 0.473,1.25 0.666,2.291 0.738,2.997 0.072,0.708 0.067,1.085 0.067,1.085 l 0,0.028 C 18.16,7.249 17.79,7.73 17.245,7.851"
         style="fill:#2e9952;fill-opacity:1;fill-rule:nonzero;stroke:none"
         id="path8920"
         inkscape:connector-curvature="0" />
    </g>
    <path
       d="m 208.80283,307.26397 -30.75,0 0,-37.56375 30.75,0 0,37.56375 z"
       style="fill:#e86f27;fill-opacity:1;fill-rule:nonzero;stroke:none"
       id="path8926"
       inkscape:connector-curvature="0" />
    <g
       id="g8928"
       transform="matrix(1.25,0,0,-1.25,208.80283,307.43987)">
      <path
         d="m 0,0 c 0,-3.218 -5.507,-5.825 -12.3,-5.825 -6.792,0 -12.3,2.607 -12.3,5.825 0,3.218 5.508,5.826 12.3,5.826 C -5.507,5.826 0,3.218 0,0"
         style="fill:#e86f27;fill-opacity:1;fill-rule:nonzero;stroke:none"
         id="path8930"
         inkscape:connector-curvature="0" />
    </g>
    <path
       d="m 137.74783,307.26397 -30.75,0 0,-37.56375 30.75,0 0,37.56375 z"
       style="fill:#e86f27;fill-opacity:1;fill-rule:nonzero;stroke:none"
       id="path8932"
       inkscape:connector-curvature="0" />
    <g
       id="g8934"
       transform="matrix(1.25,0,0,-1.25,137.74808,307.43987)">
      <path
         d="m 0,0 c 0,-3.218 -5.507,-5.825 -12.3,-5.825 -6.793,0 -12.3,2.607 -12.3,5.825 0,3.218 5.507,5.826 12.3,5.826 C -5.507,5.826 0,3.218 0,0"
         style="fill:#e86f27;fill-opacity:1;fill-rule:nonzero;stroke:none"
         id="path8936"
         inkscape:connector-curvature="0" />
    </g>
    <g
       id="g8938"
       transform="matrix(1.25,0,0,-1.25,193.50733,133.92937)">
      <path
         d="m 0,0 c 0,-13.133 -10.647,-23.78 -23.782,-23.78 -13.133,0 -23.781,10.647 -23.781,23.78 0,13.135 10.648,23.782 23.781,23.782 C -10.647,23.782 0,13.135 0,0"
         style="fill:#e5a400;fill-opacity:1;fill-rule:nonzero;stroke:none"
         id="path8940"
         inkscape:connector-curvature="0" />
    </g>
    <g
       id="g8942"
       transform="matrix(1.25,0,0,-1.25,186.89578,133.19317)">
      <path
         d="m 0,0 c 0,-10.427 -8.454,-18.88 -18.882,-18.88 -10.428,0 -18.881,8.453 -18.881,18.88 0,10.429 8.453,18.882 18.881,18.882 C -8.454,18.882 0,10.429 0,0"
         style="fill:#efb529;fill-opacity:1;fill-rule:nonzero;stroke:none"
         id="path8944"
         inkscape:connector-curvature="0" />
    </g>
    <g
       id="g8946"
       transform="matrix(1.25,0,0,-1.25,160.85777,151.64247)">
      <path
         d="m 0,0 0,3.559 c -2.509,0.112 -4.943,0.787 -6.367,1.609 l 1.124,4.382 c 1.574,-0.862 3.784,-1.648 6.217,-1.648 2.135,0 3.595,0.826 3.595,2.323 0,1.423 -1.197,2.322 -3.97,3.257 -4.007,1.349 -6.741,3.221 -6.741,6.856 0,3.295 2.323,5.88 6.329,6.665 l 0,3.558 3.671,0 0,-3.296 c 2.509,-0.113 4.194,-0.636 5.43,-1.237 L 8.203,21.798 C 7.229,22.209 5.506,23.07 2.81,23.07 c -2.435,0 -3.221,-1.049 -3.221,-2.096 0,-1.237 1.311,-2.023 4.494,-3.222 4.456,-1.573 6.255,-3.632 6.255,-7.004 0,-3.332 -2.36,-6.18 -6.667,-6.928 L 3.671,0 0,0 Z"
         style="fill:#e5a400;fill-opacity:1;fill-rule:nonzero;stroke:none"
         id="path8948"
         inkscape:connector-curvature="0" />
    </g>
    <g
       id="g8950"
       transform="matrix(1.25,0,0,-1.25,121.55483,186.30337)">
      <path
         d="m 0,0 c 7.638,-11.107 8.465,-23.797 1.85,-28.347 -6.617,-4.549 -18.172,0.763 -25.809,11.869 -7.637,11.105 -1.849,28.346 -1.849,28.346 0,0 18.17,-0.764 25.808,-11.868"
         style="fill:#f28940;fill-opacity:1;fill-rule:nonzero;stroke:none"
         id="path8952"
         inkscape:connector-curvature="0" />
    </g>
    <g
       id="g8954"
       transform="matrix(1.25,0,0,-1.25,92.116955,207.61937)">
      <path
         d="m 0,0 c 1.671,1.716 2.977,3.83 3.742,6.365 2.429,8.047 0.487,16.672 -5.618,22.533 -0.243,0.016 -0.382,0.023 -0.382,0.023 0,0 -5.788,-17.241 1.849,-28.346 C -0.274,0.381 -0.136,0.191 0,0"
         style="fill:#e86f27;fill-opacity:1;fill-rule:nonzero;stroke:none"
         id="path8956"
         inkscape:connector-curvature="0" />
    </g>
    <g
       id="g8958"
       transform="matrix(1.25,0,0,-1.25,158.69046,175.63807)">
      <path
         d="m 0,0 c -26.187,0 -48.483,-14.121 -56.953,-33.891 -1.641,-3.831 -5.413,-6.319 -9.581,-6.319 l -0.01,0 0,-24.6 0.012,0 c 4.507,0 8.624,-2.563 10.616,-6.605 9.156,-18.574 30.74,-31.623 55.916,-31.623 33.475,0 60.612,23.065 60.612,51.518 C 60.612,-23.065 33.475,0 0,0"
         style="fill:#f28940;fill-opacity:1;fill-rule:nonzero;stroke:none"
         id="path8960"
         inkscape:connector-curvature="0" />
    </g>
    <g
       id="g8962"
       transform="matrix(1.25,0,0,-1.25,74.64208,256.65007)">
      <path
         d="m 0,0 c -2.911,0 -5.273,5.507 -5.273,12.301 0,6.792 2.362,12.298 5.273,12.298 2.913,0 5.273,-5.506 5.273,-12.298 C 5.273,5.507 2.913,0 0,0"
         style="fill:#e86f27;fill-opacity:1;fill-rule:nonzero;stroke:none"
         id="path8964"
         inkscape:connector-curvature="0" />
    </g>
    <g
       id="g8966"
       transform="matrix(1.25,0,0,-1.25,106.99858,223.86937)">
      <path
         d="m 0,0 c 0,-1.954 -1.584,-3.538 -3.538,-3.538 -1.954,0 -3.538,1.584 -3.538,3.538 0,1.953 1.584,3.537 3.538,3.537 C -1.584,3.537 0,1.953 0,0"
         style="fill:#d35100;fill-opacity:1;fill-rule:nonzero;stroke:none"
         id="path8968"
         inkscape:connector-curvature="0" />
    </g>
    <g
       id="g8970"
       transform="matrix(1.25,0,0,-1.25,184.53946,193.73867)">
      <path
         d="m 0,0 c -0.294,0 -0.592,0.034 -0.89,0.105 -11.732,2.818 -24.134,2.818 -35.866,0 -2.041,-0.49 -4.09,0.767 -4.58,2.807 -0.49,2.039 0.767,4.09 2.806,4.579 12.892,3.096 26.521,3.096 39.414,0 C 2.923,7.002 4.18,4.951 3.69,2.912 3.272,1.171 1.715,0 0,0"
         style="fill:#d35100;fill-opacity:1;fill-rule:nonzero;stroke:none"
         id="path8972"
         inkscape:connector-curvature="0" />
    </g>
    <g
       id="g8974"
       transform="matrix(1.25,0,0,-1.25,72.932455,241.27527)">
      <path
         d="m 0,0 c 0,-2.177 -0.874,-3.94 -1.953,-3.94 -1.077,0 -1.952,1.763 -1.952,3.94 0,2.176 0.875,3.94 1.952,3.94 C -0.874,3.94 0,2.176 0,0"
         style="fill:#d35100;fill-opacity:1;fill-rule:nonzero;stroke:none"
         id="path8976"
         inkscape:connector-curvature="0" />
    </g>
    <g
       id="g8978"
       transform="matrix(1.25,0,0,-1.25,224.06033,221.80637)">
      <path
         d="m 0,0 c 0,0 0.324,-0.035 0.931,-0.101 0.515,-0.047 1.386,-0.104 2.43,-0.136 1.056,-0.022 2.34,0.003 3.785,0.157 1.441,0.168 3.055,0.429 4.7,0.922 1.634,0.497 3.336,1.196 4.724,2.184 1.395,0.994 2.375,2.195 2.638,3.381 0.147,0.602 0.147,1.246 0.01,2 -0.139,0.751 -0.467,1.599 -0.944,2.466 -0.241,0.434 -0.51,0.874 -0.823,1.312 -0.148,0.22 -0.318,0.438 -0.482,0.657 -0.079,0.111 -0.173,0.218 -0.259,0.327 l -0.132,0.163 -0.065,0.083 -0.017,0.021 c 0.043,-0.049 -0.118,0.137 0.091,-0.106 l -0.042,0.048 c -0.194,0.219 -0.521,0.607 -0.533,0.584 -0.05,0.061 -0.178,0.164 -0.307,0.274 -0.249,0.189 -0.486,0.329 -0.699,0.421 -0.429,0.144 -0.718,0.179 -0.982,0.124 C 13.772,14.714 13.504,14.58 13.243,14.185 12.693,13.417 12.684,11.48 13.46,9.628 13.837,8.632 14.022,8.379 14.47,8 c 0.435,-0.342 1.122,-0.587 1.925,-0.671 1.628,-0.193 3.501,0.266 5.091,0.918 1.605,0.673 2.989,1.583 4.077,2.527 1.085,0.954 1.9,1.93 2.446,2.811 0.552,0.88 0.849,1.647 1.041,2.174 0.182,0.531 0.248,0.828 0.248,0.828 0.142,0.635 0.771,1.034 1.407,0.892 0.544,-0.122 0.915,-0.602 0.92,-1.136 l 0,-0.029 c 0,0 0.004,-0.376 -0.068,-1.084 C 31.485,14.523 31.293,13.483 30.82,12.232 30.342,10.989 29.595,9.519 28.413,8.084 27.246,6.639 25.692,5.199 23.708,3.992 21.722,2.8 19.314,1.771 16.28,1.637 14.773,1.596 13.046,1.844 11.374,2.74 10.546,3.187 9.755,3.798 9.101,4.529 8.81,4.828 8.35,5.489 8.25,5.636 L 7.605,6.676 C 6.836,8 6.155,9.505 5.8,11.275 c -0.365,1.748 -0.358,3.811 0.42,5.878 0.388,1.023 0.967,2.043 1.776,2.909 0.805,0.866 1.804,1.589 2.91,2.081 2.218,1.01 4.81,1.003 6.912,0.228 1.053,-0.383 1.996,-0.916 2.833,-1.525 0.402,-0.306 0.802,-0.619 1.226,-1.041 0.494,-0.469 0.588,-0.609 0.849,-0.883 l 0.196,-0.229 0.092,-0.115 0.183,-0.229 c 0.121,-0.156 0.246,-0.303 0.363,-0.464 0.237,-0.319 0.475,-0.631 0.701,-0.966 0.459,-0.654 0.888,-1.354 1.286,-2.083 0.79,-1.464 1.457,-3.093 1.791,-4.907 0.346,-1.802 0.298,-3.792 -0.215,-5.636 -0.504,-1.85 -1.447,-3.488 -2.536,-4.792 -1.095,-1.309 -2.333,-2.31 -3.565,-3.11 -2.48,-1.59 -4.946,-2.452 -7.213,-2.995 -4.548,-1.077 -8.33,-0.87 -10.922,-0.625 -1.311,0.131 -2.283,0.315 -3.017,0.462 -0.641,0.14 -0.983,0.215 -0.983,0.215 -1.796,0.39 -2.933,2.163 -2.543,3.958 0.364,1.673 1.928,2.776 3.592,2.601 L 0,0 Z"
         style="fill:#f28940;fill-opacity:1;fill-rule:nonzero;stroke:none"
         id="path8980"
         inkscape:connector-curvature="0" />
    </g>
  </g>
</svg>
