<?xml version="1.0" encoding="UTF-8" standalone="no"?>
<!-- Created with Inkscape (http://www.inkscape.org/) -->

<svg
   xmlns:dc="http://purl.org/dc/elements/1.1/"
   xmlns:cc="http://creativecommons.org/ns#"
   xmlns:rdf="http://www.w3.org/1999/02/22-rdf-syntax-ns#"
   xmlns:svg="http://www.w3.org/2000/svg"
   xmlns="http://www.w3.org/2000/svg"
   xmlns:sodipodi="http://sodipodi.sourceforge.net/DTD/sodipodi-0.dtd"
   xmlns:inkscape="http://www.inkscape.org/namespaces/inkscape"
   width="256"
   height="256"
   viewBox="0 0 256 256"
   id="svg5320"
   version="1.1"
   inkscape:version="0.91 r13725"
   sodipodi:docname="ikona.svg">
  <defs
     id="defs5322" />
  <sodipodi:namedview
     id="base"
     pagecolor="#ffffff"
     bordercolor="#666666"
     borderopacity="1.0"
     inkscape:pageopacity="0.0"
     inkscape:pageshadow="2"
     inkscape:zoom="0.98994949"
     inkscape:cx="21.72994"
     inkscape:cy="256.24661"
     inkscape:document-units="px"
     inkscape:current-layer="layer1"
     showgrid="false"
     units="px"
     inkscape:window-width="1600"
     inkscape:window-height="837"
     inkscape:window-x="-8"
     inkscape:window-y="-8"
     inkscape:window-maximized="1" />
  <metadata
     id="metadata5325">
    <rdf:RDF>
      <cc:Work
         rdf:about="">
        <dc:format>image/svg+xml</dc:format>
        <dc:type
           rdf:resource="http://purl.org/dc/dcmitype/StillImage" />
        <dc:title></dc:title>
      </cc:Work>
    </rdf:RDF>
  </metadata>
  <g
     inkscape:label="Layer 1"
     inkscape:groupmode="layer"
     id="layer1"
     transform="translate(0,-796.36216)">
    <path
       d="m 186.98456,1036.1036 -115.23885,0 0,-155.0645 115.23885,0 0,155.0645 z"
       style="fill:#daf7f2;fill-opacity:1;fill-rule:nonzero;stroke:none"
       id="path194"
       inkscape:connector-curvature="0" />
    <path
       d="m 128.80931,1036.1036 -57.0636,0 0,-155.0645 57.0636,0 0,155.0645 z"
       style="fill:#c8e9e3;fill-opacity:1;fill-rule:nonzero;stroke:none"
       id="path196"
       inkscape:connector-curvature="0" />
    <path
       d="m 183.03037,1036.1036 -107.74256,0 0,-155.0645 107.74256,0 0,155.0645 z"
       style="fill:#ffbf00;fill-opacity:1;fill-rule:nonzero;stroke:none"
       id="path198"
       inkscape:connector-curvature="0" />
    <path
       d="m 183.03037,884.42641 -107.74256,0 0,-3.38932 107.74256,0 0,3.38932 z"
       style="fill:#f3a800;fill-opacity:1;fill-rule:nonzero;stroke:none"
       id="path200"
       inkscape:connector-curvature="0" />
    <path
       d="m 186.98456,1047.1178 -115.23885,0 0,-11.0163 115.23885,0 0,11.0163 z"
       style="fill:#daf7f2;fill-opacity:1;fill-rule:nonzero;stroke:none"
       id="path202"
       inkscape:connector-curvature="0" />
    <g
       id="g212"
       transform="matrix(2.0102726,0,0,-2.0102726,186.98498,827.05847)">
      <path
         d="m 0,0 c 0,4.514 -3.233,8.173 -7.222,8.173 -2.313,0 -4.348,-1.252 -5.67,-3.165 -1.984,1.965 -4.576,3.165 -7.42,3.165 -1.637,0 -3.189,-0.403 -4.593,-1.113 -2.022,3.441 -5.475,5.71 -9.4,5.71 -5.74,0 -10.469,-4.854 -11.181,-11.131 -1.255,1.191 -2.851,1.937 -4.617,1.937 -3.989,0 -7.503,-3.995 -7.503,-8.509 0,-6.799 3.514,-7.837 7.503,-7.837 3.064,0 4.939,0.627 5.988,3.674 2.054,-3.157 6.08,-3.674 9.81,-3.674 1.637,0 3.189,0.403 4.593,1.112 2.021,-3.44 5.475,-5.71 9.4,-5.71 4.028,0 7.542,2.402 9.535,5.997 1.122,-1.437 2.784,-2.371 4.665,-2.371 3.376,0 6.112,2.942 6.112,6.571 0,1.227 -0.333,2.362 -0.877,3.344 C -0.336,-2.68 0,-1.391 0,0"
         style="fill:#fffeff;fill-opacity:1;fill-rule:nonzero;stroke:none"
         id="path214"
         inkscape:connector-curvature="0" />
    </g>
    <g
       id="g216"
       transform="matrix(2.0102726,0,0,-2.0102726,127.02679,844.56372)">
      <path
         d="m 0,0 c -0.934,0.357 -1.928,-0.339 -1.928,-1.339 l 0,-2.387 c 0.708,0.188 1.391,0.448 2.042,0.776 0.238,-0.404 0.497,-0.792 0.773,-1.162 l 0,3.789 C 0.571,-0.213 0.272,-0.104 0,0"
         style="fill:#f5f2f4;fill-opacity:1;fill-rule:nonzero;stroke:none"
         id="path218"
         inkscape:connector-curvature="0" />
    </g>
    <g
       id="g220"
       transform="matrix(2.0102726,0,0,-2.0102726,128.8095,842.90666)">
      <path
         d="m 0,0 0,19.117 c -1.596,0.979 -3.423,1.537 -5.366,1.537 -5.74,0 -10.469,-4.854 -11.181,-11.131 -1.255,1.191 -2.851,1.936 -4.617,1.936 -3.989,0 -7.503,-3.995 -7.503,-8.508 0,-6.799 3.514,-7.838 7.503,-7.838 2.534,0 4.252,0.434 5.366,2.305 -0.802,-0.086 -1.348,-0.087 -1.348,-0.087 C -22.801,-2.424 -26.138,0 -26.138,0 l 20.65,0 c -2.076,0 -4.174,-0.378 -5.996,-1.375 -0.867,-0.474 -1.857,-0.773 -2.765,-0.964 2.201,-2.156 5.651,-2.548 8.883,-2.548 0.008,0 0.015,10e-4 0.022,10e-4 L -5.344,0 0,0 Z"
         style="fill:#f5f2f4;fill-opacity:1;fill-rule:nonzero;stroke:none"
         id="path222"
         inkscape:connector-curvature="0" />
    </g>
    <path
       d="m 186.98456,881.03709 -115.23885,0 0,-38.13085 115.23885,0 0,38.13085 z"
       style="fill:#daf7f2;fill-opacity:1;fill-rule:nonzero;stroke:none"
       id="path224"
       inkscape:connector-curvature="0" />
    <path
       d="m 128.80931,884.42641 -53.5215,0 0,151.67509 53.5215,0 0,-151.67509 z"
       style="fill:#fdb200;fill-opacity:1;fill-rule:nonzero;stroke:none"
       id="path226"
       inkscape:connector-curvature="0" />
    <path
       d="m 128.80931,881.03709 -53.5215,0 0,3.38932 53.5215,0 0,-3.38932 z"
       style="fill:#ea9b00;fill-opacity:1;fill-rule:nonzero;stroke:none"
       id="path228"
       inkscape:connector-curvature="0" />
    <path
       d="m 71.74571,1047.1178 57.0636,0 0,-11.0163 -57.0636,0 0,11.0163 z"
       style="fill:#c8e9e3;fill-opacity:1;fill-rule:nonzero;stroke:none"
       id="path230"
       inkscape:connector-curvature="0" />
    <path
       d="m 128.80931,842.90624 -57.0636,0 0,38.13085 57.0636,0 0,-38.13085 z"
       style="fill:#c8e9e3;fill-opacity:1;fill-rule:nonzero;stroke:none"
       id="path232"
       inkscape:connector-curvature="0" />
    <g
       id="g234"
       transform="matrix(2.0102726,0,0,-2.0102726,118.06721,842.90666)">
      <path
         d="m 0,0 0,-32.456 c 0,-0.941 0.763,-1.704 1.704,-1.704 0.94,0 1.703,0.763 1.703,1.704 0,0.635 -0.363,1.167 -0.878,1.46 l 0,28.833 c 0,0.999 0.994,1.696 1.928,1.339 0.594,-0.228 1.301,-0.477 2.087,-0.714 2.622,-0.79 5.462,-0.747 8.025,0.217 0.093,0.035 0.187,0.07 0.28,0.107 1.259,0.502 2.724,0.264 3.645,-0.731 0.513,-0.554 1.191,-1.151 2.065,-1.684 3.015,-1.837 6.977,-1.609 9.71,0.626 0.92,0.752 1.706,1.735 2.047,3.003 L 0,0 Z"
         style="fill:#fffeff;fill-opacity:1;fill-rule:nonzero;stroke:none"
         id="path236"
         inkscape:connector-curvature="0" />
    </g>
    <g
       id="g238"
       transform="matrix(2.0102726,0,0,-2.0102726,94.341366,848.27307)">
      <path
         d="m 0,0 c 0,0 3.296,0 5.662,1.295 1.822,0.996 3.92,1.374 5.997,1.374 l -20.651,0 c 0,0 3.337,-2.423 8.992,-2.669"
         style="fill:#fffeff;fill-opacity:1;fill-rule:nonzero;stroke:none"
         id="path240"
         inkscape:connector-curvature="0" />
    </g>
    <g
       id="g242"
       transform="matrix(2.0102726,0,0,-2.0102726,118.067,908.15266)">
      <path
         d="m 0,0 c 0,-0.941 0.763,-1.704 1.704,-1.704 0.94,0 1.703,0.763 1.703,1.704 0,0.635 -0.363,1.167 -0.878,1.46 l 0,26.446 C 1.716,27.691 0.871,27.572 0,27.57 L 0,0 Z"
         style="fill:#f5f2f4;fill-opacity:1;fill-rule:nonzero;stroke:none"
         id="path244"
         inkscape:connector-curvature="0" />
    </g>
    <g
       id="g246"
       transform="matrix(2.0102726,0,0,-2.0102726,127.02679,844.56372)">
      <path
         d="m 0,0 c 0.272,-0.104 0.571,-0.213 0.887,-0.323 l 0,1.147 -5.344,0 0,-4.886 c 0.871,0.002 1.716,0.121 2.529,0.336 l 0,2.387 c 0,1 0.994,1.696 1.928,1.339"
         style="fill:#f5f2f4;fill-opacity:1;fill-rule:nonzero;stroke:none"
         id="path248"
         inkscape:connector-curvature="0" />
    </g>
    <g
       id="g250"
       transform="matrix(2.0102726,0,0,-2.0102726,98.302005,845.34391)">
      <path
         d="m 0,0 c -0.182,-0.527 -0.39,-0.978 -0.623,-1.369 0.452,0.048 0.983,0.124 1.549,0.243 C 0.587,-0.794 0.275,-0.422 0,0"
         style="fill:#f5f2f4;fill-opacity:1;fill-rule:nonzero;stroke:none"
         id="path252"
         inkscape:connector-curvature="0" />
    </g>
    <g
       id="g254"
       transform="matrix(2.0102726,0,0,-2.0102726,117.77814,842.90666)">
      <path
         d="m 0,0 -20.651,0 c 0,0 3.337,-2.424 8.992,-2.669 0,0 0.547,10e-4 1.348,0.087 0.233,0.392 0.441,0.842 0.623,1.37 0.274,-0.422 0.586,-0.794 0.926,-1.127 0.908,0.191 1.899,0.49 2.766,0.964 C -4.174,-0.378 -2.077,0 0,0"
         style="fill:#f5f2f4;fill-opacity:1;fill-rule:nonzero;stroke:none"
         id="path256"
         inkscape:connector-curvature="0" />
    </g>
    <g
       id="g258"
       transform="matrix(2.0102726,0,0,-2.0102726,71.745098,916.62636)">
      <path
         d="m 0,0 c 0,0 -10.838,6.468 -15.957,-3.043 -0.939,-1.746 -1.447,-3.687 -1.622,-5.662 -0.573,-6.492 -0.449,-24.04 17.579,-24.384 l 0,-7.165 c 0,0 -22.576,1.66 -24.415,24.574 -0.515,6.423 1.02,12.888 4.391,18.379 0.786,1.28 1.669,2.51 2.632,3.532 0.672,0.712 0.953,1.706 0.783,2.67 l -0.055,0.312 c -0.086,0.486 0.363,0.806 0.739,0.599 l 2.83,-1.558 C -12.571,7.965 -11.98,7.821 -11.383,7.841 -9.114,7.916 -3.047,7.891 0,5.69 L 0,0 Z"
         style="fill:#daf7f2;fill-opacity:1;fill-rule:nonzero;stroke:none"
         id="path260"
         inkscape:connector-curvature="0" />
    </g>
    <g
       id="g262"
       transform="matrix(2.0102726,0,0,-2.0102726,71.745098,916.62636)">
      <path
         d="m 0,0 c 0,0 -10.838,6.468 -15.957,-3.043 -0.939,-1.746 -1.447,-3.687 -1.622,-5.662 -0.573,-6.492 -0.449,-24.04 17.579,-24.384 l 0,-7.165 c 0,0 -22.576,1.66 -24.415,24.574 -0.515,6.423 1.02,12.888 4.391,18.379 0.786,1.28 1.669,2.51 2.632,3.532 0.672,0.712 0.953,1.706 0.783,2.67 l -0.055,0.312 c -0.086,0.486 0.363,0.806 0.739,0.599 l 2.83,-1.558 C -12.571,7.965 -11.98,7.821 -11.383,7.841 -9.114,7.916 -3.047,7.891 0,5.69 L 0,0 Z"
         style="fill:#c8e9e3;fill-opacity:1;fill-rule:nonzero;stroke:none"
         id="path264"
         inkscape:connector-curvature="0" />
    </g>
    <g
       id="g266"
       transform="matrix(2.0102726,0,0,-2.0102726,135.45425,948.649)">
      <path
         d="m 0,0 c 0,-0.609 -0.493,-1.102 -1.102,-1.102 -0.608,0 -1.102,0.493 -1.102,1.102 0,0.609 0.494,1.102 1.102,1.102 C -0.493,1.102 0,0.609 0,0"
         style="fill:#f3a800;fill-opacity:1;fill-rule:nonzero;stroke:none"
         id="path268"
         inkscape:connector-curvature="0" />
    </g>
    <g
       id="g270"
       transform="matrix(2.0102726,0,0,-2.0102726,149.01193,941.87035)">
      <path
         d="m 0,0 c 0,-0.609 -0.493,-1.102 -1.102,-1.102 -0.608,0 -1.102,0.493 -1.102,1.102 0,0.609 0.494,1.102 1.102,1.102 C -0.493,1.102 0,0.609 0,0"
         style="fill:#f3a800;fill-opacity:1;fill-rule:nonzero;stroke:none"
         id="path272"
         inkscape:connector-curvature="0" />
    </g>
    <g
       id="g274"
       transform="matrix(2.0102726,0,0,-2.0102726,144.5821,975.37595)">
      <path
         d="m 0,0 c 0,-0.609 -0.493,-1.102 -1.102,-1.102 -0.608,0 -1.102,0.493 -1.102,1.102 0,0.609 0.494,1.102 1.102,1.102 C -0.493,1.102 0,0.609 0,0"
         style="fill:#f3a800;fill-opacity:1;fill-rule:nonzero;stroke:none"
         id="path276"
         inkscape:connector-curvature="0" />
    </g>
    <g
       id="g278"
       transform="matrix(2.0102726,0,0,-2.0102726,135.45425,928.48917)">
      <path
         d="m 0,0 c 0,-0.609 -0.493,-1.102 -1.102,-1.102 -0.608,0 -1.102,0.493 -1.102,1.102 0,0.609 0.494,1.102 1.102,1.102 C -0.493,1.102 0,0.609 0,0"
         style="fill:#f3a800;fill-opacity:1;fill-rule:nonzero;stroke:none"
         id="path280"
         inkscape:connector-curvature="0" />
    </g>
    <g
       id="g282"
       transform="matrix(2.0102726,0,0,-2.0102726,146.79702,909.36263)">
      <path
         d="m 0,0 c 0,-0.609 -0.493,-1.102 -1.102,-1.102 -0.608,0 -1.102,0.493 -1.102,1.102 0,0.609 0.494,1.102 1.102,1.102 C -0.493,1.102 0,0.609 0,0"
         style="fill:#f3a800;fill-opacity:1;fill-rule:nonzero;stroke:none"
         id="path284"
         inkscape:connector-curvature="0" />
    </g>
    <g
       id="g286"
       transform="matrix(2.0102726,0,0,-2.0102726,120.28213,975.37595)">
      <path
         d="m 0,0 c 0,-0.609 -0.493,-1.102 -1.102,-1.102 -0.608,0 -1.102,0.493 -1.102,1.102 0,0.609 0.494,1.102 1.102,1.102 C -0.493,1.102 0,0.609 0,0"
         style="fill:#ec9a00;fill-opacity:1;fill-rule:nonzero;stroke:none"
         id="path288"
         inkscape:connector-curvature="0" />
    </g>
    <g
       id="g290"
       transform="matrix(2.0102726,0,0,-2.0102726,166.5592,950.86391)">
      <path
         d="m 0,0 c 0,-0.609 -0.493,-1.102 -1.102,-1.102 -0.608,0 -1.102,0.493 -1.102,1.102 0,0.609 0.494,1.102 1.102,1.102 C -0.493,1.102 0,0.609 0,0"
         style="fill:#f3a800;fill-opacity:1;fill-rule:nonzero;stroke:none"
         id="path292"
         inkscape:connector-curvature="0" />
    </g>
    <g
       id="g294"
       transform="matrix(2.0102726,0,0,-2.0102726,166.5592,913.79247)">
      <path
         d="m 0,0 c 0,-0.608 -0.493,-1.102 -1.102,-1.102 -0.608,0 -1.102,0.494 -1.102,1.102 0,0.609 0.494,1.102 1.102,1.102 C -0.493,1.102 0,0.609 0,0"
         style="fill:#f3a800;fill-opacity:1;fill-rule:nonzero;stroke:none"
         id="path296"
         inkscape:connector-curvature="0" />
    </g>
    <g
       id="g298"
       transform="matrix(2.0102726,0,0,-2.0102726,159.91445,995.33329)">
      <path
         d="m 0,0 c 0,-0.609 -0.493,-1.102 -1.102,-1.102 -0.608,0 -1.102,0.493 -1.102,1.102 0,0.609 0.494,1.102 1.102,1.102 C -0.493,1.102 0,0.609 0,0"
         style="fill:#f3a800;fill-opacity:1;fill-rule:nonzero;stroke:none"
         id="path300"
         inkscape:connector-curvature="0" />
    </g>
    <g
       id="g302"
       transform="matrix(2.0102726,0,0,-2.0102726,142.36718,1009.3147)">
      <path
         d="m 0,0 c 0,-0.609 -0.493,-1.102 -1.102,-1.102 -0.608,0 -1.102,0.493 -1.102,1.102 0,0.608 0.494,1.102 1.102,1.102 C -0.493,1.102 0,0.608 0,0"
         style="fill:#f3a800;fill-opacity:1;fill-rule:nonzero;stroke:none"
         id="path304"
         inkscape:connector-curvature="0" />
    </g>
    <g
       id="g306"
       transform="matrix(2.0102726,0,0,-2.0102726,128.8095,1026.2618)">
      <path
         d="m 0,0 c 0,-0.609 -0.493,-1.102 -1.102,-1.102 -0.608,0 -1.102,0.493 -1.102,1.102 0,0.609 0.494,1.102 1.102,1.102 C -0.493,1.102 0,0.609 0,0"
         style="fill:#ec9a00;fill-opacity:1;fill-rule:nonzero;stroke:none"
         id="path308"
         inkscape:connector-curvature="0" />
    </g>
    <g
       id="g310"
       transform="matrix(2.0102726,0,0,-2.0102726,174.51244,975.37595)">
      <path
         d="m 0,0 c 0,-0.609 -0.493,-1.102 -1.102,-1.102 -0.608,0 -1.102,0.493 -1.102,1.102 0,0.609 0.494,1.102 1.102,1.102 C -0.493,1.102 0,0.609 0,0"
         style="fill:#f3a800;fill-opacity:1;fill-rule:nonzero;stroke:none"
         id="path312"
         inkscape:connector-curvature="0" />
    </g>
    <g
       id="g314"
       transform="matrix(2.0102726,0,0,-2.0102726,166.5592,1024.0469)">
      <path
         d="m 0,0 c 0,-0.609 -0.493,-1.102 -1.102,-1.102 -0.608,0 -1.102,0.493 -1.102,1.102 0,0.609 0.494,1.102 1.102,1.102 C -0.493,1.102 0,0.609 0,0"
         style="fill:#f3a800;fill-opacity:1;fill-rule:nonzero;stroke:none"
         id="path316"
         inkscape:connector-curvature="0" />
    </g>
    <g
       id="g318"
       transform="matrix(2.0102726,0,0,-2.0102726,164.34428,893.65115)">
      <path
         d="m 0,0 c 0,-0.609 -0.493,-1.102 -1.102,-1.102 -0.608,0 -1.102,0.493 -1.102,1.102 0,0.609 0.494,1.102 1.102,1.102 C -0.493,1.102 0,0.609 0,0"
         style="fill:#f3a800;fill-opacity:1;fill-rule:nonzero;stroke:none"
         id="path320"
         inkscape:connector-curvature="0" />
    </g>
    <g
       id="g322"
       transform="matrix(2.0102726,0,0,-2.0102726,106.15936,901.37402)">
      <path
         d="m 0,0 c 0,-0.609 -0.493,-1.102 -1.102,-1.102 -0.608,0 -1.102,0.493 -1.102,1.102 0,0.609 0.494,1.102 1.102,1.102 C -0.493,1.102 0,0.609 0,0"
         style="fill:#ec9a00;fill-opacity:1;fill-rule:nonzero;stroke:none"
         id="path324"
         inkscape:connector-curvature="0" />
    </g>
    <g
       id="g326"
       transform="matrix(2.0102726,0,0,-2.0102726,90.907226,916.00739)">
      <path
         d="m 0,0 c 0,-0.608 -0.493,-1.102 -1.102,-1.102 -0.608,0 -1.102,0.494 -1.102,1.102 0,0.609 0.494,1.102 1.102,1.102 C -0.493,1.102 0,0.609 0,0"
         style="fill:#ec9a00;fill-opacity:1;fill-rule:nonzero;stroke:none"
         id="path328"
         inkscape:connector-curvature="0" />
    </g>
    <g
       id="g330"
       transform="matrix(2.0102726,0,0,-2.0102726,108.37448,928.41862)">
      <path
         d="m 0,0 c 0,-0.608 -0.493,-1.102 -1.102,-1.102 -0.608,0 -1.102,0.494 -1.102,1.102 0,0.609 0.494,1.102 1.102,1.102 C -0.493,1.102 0,0.609 0,0"
         style="fill:#ec9a00;fill-opacity:1;fill-rule:nonzero;stroke:none"
         id="path332"
         inkscape:connector-curvature="0" />
    </g>
    <g
       id="g334"
       transform="matrix(2.0102726,0,0,-2.0102726,101.4511,958.5701)">
      <path
         d="m 0,0 c 0,-0.609 -0.493,-1.102 -1.102,-1.102 -0.608,0 -1.102,0.493 -1.102,1.102 0,0.609 0.494,1.102 1.102,1.102 C -0.493,1.102 0,0.609 0,0"
         style="fill:#ec9a00;fill-opacity:1;fill-rule:nonzero;stroke:none"
         id="path336"
         inkscape:connector-curvature="0" />
    </g>
    <g
       id="g338"
       transform="matrix(2.0102726,0,0,-2.0102726,110.58919,997.54829)">
      <path
         d="m 0,0 c 0,-0.609 -0.493,-1.102 -1.102,-1.102 -0.608,0 -1.102,0.493 -1.102,1.102 0,0.609 0.494,1.102 1.102,1.102 C -0.493,1.102 0,0.609 0,0"
         style="fill:#ec9a00;fill-opacity:1;fill-rule:nonzero;stroke:none"
         id="path340"
         inkscape:connector-curvature="0" />
    </g>
    <g
       id="g342"
       transform="matrix(2.0102726,0,0,-2.0102726,95.337062,977.59095)">
      <path
         d="m 0,0 c 0,-0.609 -0.493,-1.102 -1.102,-1.102 -0.608,0 -1.102,0.493 -1.102,1.102 0,0.609 0.494,1.102 1.102,1.102 C -0.493,1.102 0,0.609 0,0"
         style="fill:#ec9a00;fill-opacity:1;fill-rule:nonzero;stroke:none"
         id="path344"
         inkscape:connector-curvature="0" />
    </g>
    <g
       id="g346"
       transform="matrix(2.0102726,0,0,-2.0102726,108.37448,1019.6171)">
      <path
         d="m 0,0 c 0,-0.609 -0.493,-1.102 -1.102,-1.102 -0.608,0 -1.102,0.493 -1.102,1.102 0,0.608 0.494,1.102 1.102,1.102 C -0.493,1.102 0,0.608 0,0"
         style="fill:#ec9a00;fill-opacity:1;fill-rule:nonzero;stroke:none"
         id="path348"
         inkscape:connector-curvature="0" />
    </g>
    <g
       id="g350"
       transform="matrix(2.0102726,0,0,-2.0102726,95.337062,937.44053)">
      <path
         d="m 0,0 c 0,-0.609 -0.493,-1.102 -1.102,-1.102 -0.608,0 -1.102,0.493 -1.102,1.102 0,0.609 0.494,1.102 1.102,1.102 C -0.493,1.102 0,0.609 0,0"
         style="fill:#ec9a00;fill-opacity:1;fill-rule:nonzero;stroke:none"
         id="path352"
         inkscape:connector-curvature="0" />
    </g>
    <g
       id="g354"
       transform="matrix(2.0102726,0,0,-2.0102726,88.692307,1001.9783)">
      <path
         d="m 0,0 c 0,-0.608 -0.493,-1.102 -1.102,-1.102 -0.608,0 -1.102,0.494 -1.102,1.102 0,0.609 0.494,1.102 1.102,1.102 C -0.493,1.102 0,0.609 0,0"
         style="fill:#ec9a00;fill-opacity:1;fill-rule:nonzero;stroke:none"
         id="path356"
         inkscape:connector-curvature="0" />
    </g>
    <g
       id="g358"
       transform="matrix(2.0102726,0,0,-2.0102726,133.23934,892.56399)">
      <path
         d="m 0,0 c 0,-0.608 -0.493,-1.102 -1.102,-1.102 -0.608,0 -1.102,0.494 -1.102,1.102 0,0.609 0.494,1.102 1.102,1.102 C -0.493,1.102 0,0.609 0,0"
         style="fill:#f3a800;fill-opacity:1;fill-rule:nonzero;stroke:none"
         id="path360"
         inkscape:connector-curvature="0" />
    </g>
    <g
       id="g362"
       transform="matrix(2.0102726,0,0,-2.0102726,174.51244,928.41862)">
      <path
         d="m 0,0 c 0,-0.608 -0.493,-1.102 -1.102,-1.102 -0.608,0 -1.102,0.494 -1.102,1.102 0,0.609 0.494,1.102 1.102,1.102 C -0.493,1.102 0,0.609 0,0"
         style="fill:#f3a800;fill-opacity:1;fill-rule:nonzero;stroke:none"
         id="path364"
         inkscape:connector-curvature="0" />
    </g>
    <g
       id="g366"
       transform="matrix(2.0102726,0,0,-2.0102726,178.64937,855.61861)">
      <path
         d="M 0,0 0,-10.757"
         style="fill:none;stroke:#fffaff;stroke-width:1;stroke-linecap:round;stroke-linejoin:miter;stroke-miterlimit:10;stroke-dasharray:none;stroke-opacity:1"
         id="path368"
         inkscape:connector-curvature="0" />
    </g>
    <g
       id="g370"
       transform="matrix(2.0102726,0,0,-2.0102726,178.64937,893.59608)">
      <path
         d="M 0,0 0,-5.484"
         style="fill:none;stroke:#fef6d9;stroke-width:1;stroke-linecap:round;stroke-linejoin:miter;stroke-miterlimit:10;stroke-dasharray:none;stroke-opacity:1"
         id="path372"
         inkscape:connector-curvature="0" />
    </g>
    <g
       id="g374"
       transform="matrix(2.0102726,0,0,-2.0102726,178.64937,914.82454)">
      <path
         d="M 0,0 0,-46.415"
         style="fill:none;stroke:#fef6d9;stroke-width:1;stroke-linecap:round;stroke-linejoin:miter;stroke-miterlimit:10;stroke-dasharray:none;stroke-opacity:1"
         id="path376"
         inkscape:connector-curvature="0" />
    </g>
  </g>
</svg>
