<?xml version="1.0" encoding="UTF-8" standalone="no"?>
<!-- Created with Inkscape (http://www.inkscape.org/) -->

<svg
   xmlns:dc="http://purl.org/dc/elements/1.1/"
   xmlns:cc="http://creativecommons.org/ns#"
   xmlns:rdf="http://www.w3.org/1999/02/22-rdf-syntax-ns#"
   xmlns:svg="http://www.w3.org/2000/svg"
   xmlns="http://www.w3.org/2000/svg"
   xmlns:sodipodi="http://sodipodi.sourceforge.net/DTD/sodipodi-0.dtd"
   xmlns:inkscape="http://www.inkscape.org/namespaces/inkscape"
   width="210mm"
   height="297mm"
   viewBox="0 0 744.09448819 1052.3622047"
   id="svg5524"
   version="1.1"
   inkscape:version="0.91 r13725"
   sodipodi:docname="stopien_1_hipster.svg">
  <defs
     id="defs5526">
    <clipPath
       clipPathUnits="userSpaceOnUse"
       id="clipPath200">
      <path
         d="m 213.488,393.124 c 0,-46.944 38.056,-85.001 85.001,-85.001 l 0,0 c 46.944,0 84.999,38.057 84.999,85.001 l 0,0 c 0,46.944 -38.055,85 -84.999,85 l 0,0 c -46.945,0 -85.001,-38.056 -85.001,-85"
         id="path202"
         inkscape:connector-curvature="0" />
    </clipPath>
    <clipPath
       clipPathUnits="userSpaceOnUse"
       id="clipPath184">
      <path
         d="M 0,800 800,800 800,0 0,0 0,800 Z"
         id="path186"
         inkscape:connector-curvature="0" />
    </clipPath>
  </defs>
  <sodipodi:namedview
     id="base"
     pagecolor="#ffffff"
     bordercolor="#666666"
     borderopacity="1.0"
     inkscape:pageopacity="0.0"
     inkscape:pageshadow="2"
     inkscape:zoom="0.35"
     inkscape:cx="-335"
     inkscape:cy="520"
     inkscape:document-units="px"
     inkscape:current-layer="layer1"
     showgrid="false"
     inkscape:window-width="1600"
     inkscape:window-height="837"
     inkscape:window-x="-8"
     inkscape:window-y="-8"
     inkscape:window-maximized="1" />
  <metadata
     id="metadata5529">
    <rdf:RDF>
      <cc:Work
         rdf:about="">
        <dc:format>image/svg+xml</dc:format>
        <dc:type
           rdf:resource="http://purl.org/dc/dcmitype/StillImage" />
        <dc:title></dc:title>
      </cc:Work>
    </rdf:RDF>
  </metadata>
  <g
     inkscape:label="Layer 1"
     inkscape:groupmode="layer"
     id="layer1">
    <g
       id="g180"
       transform="matrix(1.25,0,0,-1.25,-241.68367,640.90823)"
       style="fill:#b3b3b3"
       inkscape:export-filename="C:\Users\bartosz\Desktop\hcktn2\PartyPlanner\src\graphics\stopien_1_hipster.png"
       inkscape:export-xdpi="127.0595"
       inkscape:export-ydpi="127.0595">
      <g
         id="g182"
         clip-path="url(#clipPath184)"
         style="fill:#b3b3b3">
        <g
           id="g188"
           transform="translate(383.4888,393.1211)"
           style="fill:#b3b3b3">
          <path
             d="m 0,0 c 0,46.945 -38.056,85.001 -85,85.001 -46.943,0 -84.998,-38.056 -84.998,-85.001 0,-46.942 38.055,-84.997 84.998,-84.997 46.944,0 85,38.055 85,84.997"
             style="fill:#b3b3b3;fill-opacity:1;fill-rule:nonzero;stroke:none"
             id="path190"
             inkscape:connector-curvature="0" />
        </g>
        <g
           id="g192"
           transform="translate(383.4888,393.1211)"
           style="fill:#b3b3b3">
          <path
             d="m 0,0 c 0,46.945 -38.056,85.001 -85,85.001 l 0,-169.998 c 46.944,0 85,38.055 85,84.997"
             style="fill:#b3b3b3;fill-opacity:1;fill-rule:nonzero;stroke:none"
             id="path194"
             inkscape:connector-curvature="0" />
        </g>
      </g>
    </g>
    <g
       id="g196"
       transform="matrix(1.25,0,0,-1.25,-241.68367,640.90823)"
       inkscape:export-filename="C:\Users\bartosz\Desktop\hcktn2\PartyPlanner\src\graphics\stopien_1_hipster.png"
       inkscape:export-xdpi="127.0595"
       inkscape:export-ydpi="127.0595">
      <g
         id="g198"
         clip-path="url(#clipPath200)">
        <g
           id="g204"
           transform="translate(313.9541,355.4209)">
          <path
             d="m 0,0 c 0,0 23.668,-3.46 27.163,-7.1 3.044,-3.171 9.372,-33.535 10.836,-40.198 l -53.465,0 0,43.116 L 0,0 Z"
             style="fill:#2a2d34;fill-opacity:1;fill-rule:nonzero;stroke:none"
             id="path206"
             inkscape:connector-curvature="0" />
        </g>
        <path
           d="m 310.936,343.828 -24.894,0 0,27.295 24.894,0 0,-27.295 z"
           style="fill:#d9a78c;fill-opacity:1;fill-rule:nonzero;stroke:none"
           id="path208"
           inkscape:connector-curvature="0" />
        <g
           id="g210"
           transform="translate(298.4888,449.7891)">
          <path
             d="m 0,0 c 12.085,0 31.201,-6.87 31.201,-39.066 0,-18.589 -6.061,-30.767 -8.702,-34.136 C 20.069,-76.302 6.41,-82.907 0,-82.907 L 0,0 Z"
             style="fill:#eac0a7;fill-opacity:1;fill-rule:nonzero;stroke:none"
             id="path212"
             inkscape:connector-curvature="0" />
        </g>
        <g
           id="g214"
           transform="translate(335.7002,403.0469)">
          <path
             d="m 0,0 c 0.533,5.144 -1.918,9.708 -5.473,10.196 -3.557,0.489 -6.872,-3.287 -7.405,-8.431 -0.533,-5.143 1.919,-9.708 5.475,-10.196 C -3.847,-8.918 -0.532,-5.144 0,0"
             style="fill:#eac0a7;fill-opacity:1;fill-rule:nonzero;stroke:none"
             id="path216"
             inkscape:connector-curvature="0" />
        </g>
        <g
           id="g218"
           transform="translate(298.4893,449.7891)">
          <path
             d="m 0,0 c -12.086,0 -31.2,-6.87 -31.2,-39.066 0,-18.589 6.06,-30.767 8.702,-34.136 2.429,-3.1 16.089,-9.705 22.498,-9.705 L 0,0 Z"
             style="fill:#f2d7bc;fill-opacity:1;fill-rule:nonzero;stroke:none"
             id="path220"
             inkscape:connector-curvature="0" />
        </g>
        <g
           id="g222"
           transform="translate(261.2773,403.0469)">
          <path
             d="M 0,0 C -0.533,5.144 1.918,9.708 5.474,10.196 9.031,10.685 12.345,6.909 12.878,1.765 13.412,-3.378 10.96,-7.943 7.403,-8.431 3.849,-8.918 0.534,-5.144 0,0"
             style="fill:#f2d7bc;fill-opacity:1;fill-rule:nonzero;stroke:none"
             id="path224"
             inkscape:connector-curvature="0" />
        </g>
        <g
           id="g226"
           transform="translate(282.2114,443.0576)">
          <path
             d="m 0,0 c 0,0 -10.557,-12.525 -6.514,-24.204 0.674,-13.925 -0.673,-18.641 -5.165,-22.459 1.122,13.475 -0.225,17.968 -5.165,16.395 C -18.865,-19.712 -14.506,8.724 0,0"
             style="fill:#690102;fill-opacity:1;fill-rule:nonzero;stroke:none"
             id="path228"
             inkscape:connector-curvature="0" />
        </g>
        <g
           id="g230"
           transform="translate(314.6841,443.0576)">
          <path
             d="m 0,0 c 0,0 10.557,-12.525 6.513,-24.204 -0.673,-13.925 0.675,-18.641 5.166,-22.459 -1.122,13.475 0.225,17.968 5.166,16.395 C 18.866,-19.712 14.506,8.724 0,0"
             style="fill:#690102;fill-opacity:1;fill-rule:nonzero;stroke:none"
             id="path232"
             inkscape:connector-curvature="0" />
        </g>
        <g
           id="g234"
           transform="translate(283.0229,355.4209)">
          <path
             d="m 0,0 c 0,0 -23.668,-3.46 -27.163,-7.1 -3.044,-3.171 -9.371,-33.535 -10.834,-40.198 l 53.462,0 0,43.116 L 0,0 Z"
             style="fill:#2f343a;fill-opacity:1;fill-rule:nonzero;stroke:none"
             id="path236"
             inkscape:connector-curvature="0" />
        </g>
        <g
           id="g238"
           transform="translate(314.2397,356.0557)">
          <path
             d="M 0,0 -15.751,-3.228 -31.502,0 -15.751,-47.933"
             style="fill:#b9c7d0;fill-opacity:1;fill-rule:nonzero;stroke:none"
             id="path240"
             inkscape:connector-curvature="0" />
        </g>
        <g
           id="g242"
           transform="translate(297.1768,346.3652)">
          <path
             d="m 0,0 -2.572,-32.416 3.884,-5.826 3.883,5.826 L 2.624,0 0,0 Z"
             style="fill:#129e95;fill-opacity:1;fill-rule:nonzero;stroke:none"
             id="path244"
             inkscape:connector-curvature="0" />
        </g>
        <g
           id="g246"
           transform="translate(287.1328,335.3643)">
          <path
             d="m 0,0 -12.527,18.581 c 3.43,1.243 7.11,2.177 10.98,2.807 L 11.356,-27.241 -6.739,-1.334 0,0 Z"
             style="fill:#3a404c;fill-opacity:1;fill-rule:nonzero;stroke:none"
             id="path248"
             inkscape:connector-curvature="0" />
        </g>
        <g
           id="g250"
           transform="translate(309.8472,335.3643)">
          <path
             d="m 0,0 12.527,18.581 c -3.43,1.243 -7.11,2.177 -10.98,2.807 L -11.358,-27.241 6.738,-1.334 0,0 Z"
             style="fill:#3a404c;fill-opacity:1;fill-rule:nonzero;stroke:none"
             id="path252"
             inkscape:connector-curvature="0" />
        </g>
        <g
           id="g254"
           transform="translate(302.7383,348.4424)">
          <path
             d="M 0,0 -4.249,-4.378 -8.497,0 -4.249,4.379 0,0 Z"
             style="fill:#129e95;fill-opacity:1;fill-rule:nonzero;stroke:none"
             id="path256"
             inkscape:connector-curvature="0" />
        </g>
        <g
           id="g258"
           transform="translate(298.4883,352.8271)">
          <path
             d="M 0,0 12.638,6.39 19.154,2.594 5.625,-8.22 0,0 Z"
             style="fill:#ffffff;fill-opacity:1;fill-rule:nonzero;stroke:none"
             id="path260"
             inkscape:connector-curvature="0" />
        </g>
        <g
           id="g262"
           transform="translate(298.4897,352.8271)">
          <path
             d="M 0,0 -12.637,6.39 -19.154,2.594 -5.854,-8.22 0,0 Z"
             style="fill:#ffffff;fill-opacity:1;fill-rule:nonzero;stroke:none"
             id="path264"
             inkscape:connector-curvature="0" />
        </g>
        <g
           id="g266"
           transform="translate(328.3115,437.5645)">
          <path
             d="m 0,0 c -4.972,20.433 -35.263,36.481 -56.555,4.409 -1.366,-6.325 4.583,-9.292 4.583,-9.292 0,0 3.973,9.292 22.194,5.004 9.073,1.983 17.914,3.461 21.994,-4.929 C -3.705,-13.196 0,0 0,0"
             style="fill:#690102;fill-opacity:1;fill-rule:nonzero;stroke:none"
             id="path268"
             inkscape:connector-curvature="0" />
        </g>
        <g
           id="g270"
           transform="translate(316.3696,380.6768)">
          <path
             d="M 0,0 C -6.248,0 -10.716,5.076 -17.881,5.076 -25.046,5.076 -29.515,0 -35.763,0 c -6.849,0 -11.159,11.807 -12.459,15.945 1.765,-11.912 5.813,-19.712 7.844,-22.301 2.429,-3.1 16.087,-9.705 22.497,-9.706 l 0.001,0 c 6.41,0.001 20.068,6.606 22.498,9.706 2.03,2.59 6.081,10.395 7.845,22.314 C 11.168,11.831 6.857,0 0,0"
             style="fill:#690102;fill-opacity:1;fill-rule:nonzero;stroke:none"
             id="path272"
             inkscape:connector-curvature="0" />
        </g>
        <g
           id="g274"
           transform="translate(298.4897,374.999)">
          <path
             d="m 0,0 c 2.107,0 3.815,0.89 3.815,1.986 l -7.629,0 C -3.814,0.89 -2.106,0 0,0"
             style="fill:#ffffff;fill-opacity:1;fill-rule:nonzero;stroke:none"
             id="path276"
             inkscape:connector-curvature="0" />
        </g>
      </g>
    </g>
    <g
       id="g2564"
       transform="matrix(1.0139312,0,0,-1.0139312,174.64014,253.25455)"
       inkscape:export-filename="C:\Users\bartosz\Desktop\hcktn2\PartyPlanner\src\graphics\stopien_1_hipster.png"
       inkscape:export-xdpi="127.0595"
       inkscape:export-ydpi="127.0595">
      <path
         d="m 0,0 25.45,0 c 0.934,0 1.698,0.764 1.698,1.698 0,0.935 -0.764,1.698 -1.698,1.698 L 0,3.396 C -0.935,3.396 -1.698,2.633 -1.698,1.698 -1.698,0.764 -0.935,0 0,0"
         style="fill:#bbd8e6;fill-opacity:1;fill-rule:evenodd;stroke:none"
         id="path2566"
         inkscape:connector-curvature="0" />
    </g>
    <g
       id="g2568"
       transform="matrix(1.0139312,0,0,-1.0139312,193.13749,250.13945)"
       inkscape:export-filename="C:\Users\bartosz\Desktop\hcktn2\PartyPlanner\src\graphics\stopien_1_hipster.png"
       inkscape:export-xdpi="127.0595"
       inkscape:export-ydpi="127.0595">
      <path
         d="m 0,0 c -1.448,2.148 -4.007,3.61 -4.007,11.164 l 0,11.291 c 0,8.108 3.339,11.989 6.44,15.234 l -15.903,0 c 3.102,-3.246 6.49,-7.032 6.49,-15.138 l 0,-11.285 C -6.98,3.713 -9.589,2.148 -11.037,0 -8.93,-2.914 -2.519,-1.925 0,0"
         style="fill:#bbd8e6;fill-opacity:1;fill-rule:evenodd;stroke:none"
         id="path2570"
         inkscape:connector-curvature="0" />
    </g>
    <g
       id="g2572"
       transform="matrix(1.0139312,0,0,-1.0139312,179.7553,212.21705)"
       inkscape:export-filename="C:\Users\bartosz\Desktop\hcktn2\PartyPlanner\src\graphics\stopien_1_hipster.png"
       inkscape:export-xdpi="127.0595"
       inkscape:export-ydpi="127.0595">
      <path
         d="m 0,0 c 2.994,-3.194 6.218,-6.982 6.218,-14.851 l 0,-11.286 c 0,-5.925 -1.812,-8.239 -3.061,-9.914 4.383,-0.432 4.084,9.804 4.084,12.921 l 0,11.291 c 0,3.592 0,10.107 -1.532,12.127 C 4.454,1.942 1.861,-0.643 0,0"
         style="fill:#99b9c9;fill-opacity:1;fill-rule:evenodd;stroke:none"
         id="path2574"
         inkscape:connector-curvature="0" />
    </g>
    <g
       id="g2576"
       transform="matrix(1.0139312,0,0,-1.0139312,174.45998,253.25455)"
       inkscape:export-filename="C:\Users\bartosz\Desktop\hcktn2\PartyPlanner\src\graphics\stopien_1_hipster.png"
       inkscape:export-xdpi="127.0595"
       inkscape:export-ydpi="127.0595">
      <path
         d="m 0,0 25.805,0 c 0.837,0 1.52,0.764 1.52,1.698 l -28.846,0 C -1.521,0.764 -0.836,0 0,0"
         style="fill:#99b9c9;fill-opacity:1;fill-rule:evenodd;stroke:none"
         id="path2578"
         inkscape:connector-curvature="0" />
    </g>
    <g
       id="g2580"
       transform="matrix(1.0139312,0,0,-1.0139312,154.9487,188.69165)"
       inkscape:export-filename="C:\Users\bartosz\Desktop\hcktn2\PartyPlanner\src\graphics\stopien_1_hipster.png"
       inkscape:export-xdpi="127.0595"
       inkscape:export-ydpi="127.0595">
      <path
         d="M 0,0 64.292,0 38.72,-24.41 25.573,-24.41 0,0 Z"
         style="fill:#99b9c9;fill-opacity:1;fill-rule:evenodd;stroke:none"
         id="path2582"
         inkscape:connector-curvature="0" />
    </g>
    <g
       id="g2584"
       transform="matrix(1.0139312,0,0,-1.0139312,171.72715,188.69165)"
       inkscape:export-filename="C:\Users\bartosz\Desktop\hcktn2\PartyPlanner\src\graphics\stopien_1_hipster.png"
       inkscape:export-xdpi="127.0595"
       inkscape:export-ydpi="127.0595">
      <path
         d="m 0,0 47.744,0 -25.572,-24.41 -7.855,0 L 0,0 Z"
         style="fill:#bbd8e6;fill-opacity:1;fill-rule:evenodd;stroke:none"
         id="path2586"
         inkscape:connector-curvature="0" />
    </g>
    <g
       id="g2588"
       transform="matrix(1.0139312,0,0,-1.0139312,162.78485,188.69165)"
       inkscape:export-filename="C:\Users\bartosz\Desktop\hcktn2\PartyPlanner\src\graphics\stopien_1_hipster.png"
       inkscape:export-xdpi="127.0595"
       inkscape:export-ydpi="127.0595">
      <path
         d="m 0,0 4.382,0 16.27,-24.41 -0.872,0 L 0,0 Z"
         style="fill:#bbd8e6;fill-opacity:1;fill-rule:evenodd;stroke:none"
         id="path2590"
         inkscape:connector-curvature="0" />
    </g>
    <g
       id="g2592"
       transform="matrix(1.0139312,0,0,-1.0139312,212.84774,188.69165)"
       inkscape:export-filename="C:\Users\bartosz\Desktop\hcktn2\PartyPlanner\src\graphics\stopien_1_hipster.png"
       inkscape:export-xdpi="127.0595"
       inkscape:export-ydpi="127.0595">
      <path
         d="m 0,0 -4.381,0 -16.27,-24.41 0.871,0 L 0,0 Z"
         style="fill:#e1f2fa;fill-opacity:1;fill-rule:evenodd;stroke:none"
         id="path2594"
         inkscape:connector-curvature="0" />
    </g>
    <g
       id="g2596"
       transform="matrix(1.0139312,0,0,-1.0139312,213.50032,195.02675)"
       inkscape:export-filename="C:\Users\bartosz\Desktop\hcktn2\PartyPlanner\src\graphics\stopien_1_hipster.png"
       inkscape:export-xdpi="127.0595"
       inkscape:export-ydpi="127.0595">
      <path
         d="m 0,0 -17.19,-16.408 -16.822,0 L -51.202,0 0,0 Z"
         style="fill:#83a17d;fill-opacity:1;fill-rule:evenodd;stroke:none"
         id="path2598"
         inkscape:connector-curvature="0" />
    </g>
    <g
       id="g2600"
       transform="matrix(1.0139312,0,0,-1.0139312,171.44983,195.02675)"
       inkscape:export-filename="C:\Users\bartosz\Desktop\hcktn2\PartyPlanner\src\graphics\stopien_1_hipster.png"
       inkscape:export-xdpi="127.0595"
       inkscape:export-ydpi="127.0595">
      <path
         d="m 0,0 10.938,-16.408 -1.124,0 L -3.483,0 0,0 Z"
         style="fill:#a9c7a3;fill-opacity:1;fill-rule:evenodd;stroke:none"
         id="path2602"
         inkscape:connector-curvature="0" />
    </g>
    <g
       id="g2604"
       transform="matrix(1.0139312,0,0,-1.0139312,204.53529,203.58385)"
       inkscape:export-filename="C:\Users\bartosz\Desktop\hcktn2\PartyPlanner\src\graphics\stopien_1_hipster.png"
       inkscape:export-xdpi="127.0595"
       inkscape:export-ydpi="127.0595">
      <path
         d="m 0,0 -8.349,-7.969 -10.719,0 -9.625,16.408 37.535,0 L 0,0 Z"
         style="fill:#a9c7a3;fill-opacity:1;fill-rule:evenodd;stroke:none"
         id="path2606"
         inkscape:connector-curvature="0" />
    </g>
    <g
       id="g2608"
       transform="matrix(1.0139312,0,0,-1.0139312,204.18374,195.02675)"
       inkscape:export-filename="C:\Users\bartosz\Desktop\hcktn2\PartyPlanner\src\graphics\stopien_1_hipster.png"
       inkscape:export-xdpi="127.0595"
       inkscape:export-ydpi="127.0595">
      <path
         d="m 0,0 -10.938,-16.408 1.124,0 L 3.483,0 0,0 Z"
         style="fill:#d3ebce;fill-opacity:1;fill-rule:evenodd;stroke:none"
         id="path2610"
         inkscape:connector-curvature="0" />
    </g>
    <g
       id="g2616"
       transform="matrix(1.0139312,0,0,-1.0139312,197.85754,195.02675)"
       inkscape:export-filename="C:\Users\bartosz\Desktop\hcktn2\PartyPlanner\src\graphics\stopien_1_hipster.png"
       inkscape:export-xdpi="127.0595"
       inkscape:export-ydpi="127.0595">
      <path
         d="M 0,0 1.139,0 C -0.178,-3.334 -1.396,-6.184 -2.396,-8.276 -1.862,-6.105 -1.039,-3.26 0,0"
         style="fill:#d2ba74;fill-opacity:1;fill-rule:evenodd;stroke:none"
         id="path2618"
         inkscape:connector-curvature="0" />
    </g>
    <g
       id="g2620"
       transform="matrix(1.0139312,0,0,-1.0139312,201.53608,185.21025)"
       inkscape:export-filename="C:\Users\bartosz\Desktop\hcktn2\PartyPlanner\src\graphics\stopien_1_hipster.png"
       inkscape:export-xdpi="127.0595"
       inkscape:export-ydpi="127.0595">
      <path
         d="m 0,0 c 2.167,-0.774 3.149,-3.567 2.194,-6.239 -0.955,-2.67 -3.485,-4.208 -5.652,-3.433 -2.167,0.775 -3.15,3.568 -2.195,6.238 C -4.698,-0.762 -2.167,0.775 0,0"
         style="fill:#57804e;fill-opacity:1;fill-rule:evenodd;stroke:none"
         id="path2622"
         inkscape:connector-curvature="0" />
    </g>
    <g
       id="g2624"
       transform="matrix(1.0139312,0,0,-1.0139312,195.80406,188.69165)"
       inkscape:export-filename="C:\Users\bartosz\Desktop\hcktn2\PartyPlanner\src\graphics\stopien_1_hipster.png"
       inkscape:export-xdpi="127.0595"
       inkscape:export-ydpi="127.0595">
      <path
         d="M 0,0 8.165,0 C 8.282,-0.887 8.188,-1.854 7.848,-2.806 6.893,-5.476 4.362,-7.014 2.195,-6.238 0.028,-5.464 -0.954,-2.671 0,0"
         style="fill:#89ac9a;fill-opacity:1;fill-rule:evenodd;stroke:none"
         id="path2626"
         inkscape:connector-curvature="0" />
    </g>
    <g
       id="g2628"
       transform="matrix(1.0139312,0,0,-1.0139312,199.98444,185.77855)"
       inkscape:export-filename="C:\Users\bartosz\Desktop\hcktn2\PartyPlanner\src\graphics\stopien_1_hipster.png"
       inkscape:export-xdpi="127.0595"
       inkscape:export-ydpi="127.0595">
      <path
         d="M 0,0 C 0.706,-0.252 1.025,-1.16 0.715,-2.03 0.404,-2.9 -0.42,-3.4 -1.126,-3.148 -1.831,-2.896 -2.15,-1.986 -1.84,-1.117 -1.529,-0.247 -0.705,0.254 0,0"
         style="fill:#89b080;fill-opacity:1;fill-rule:evenodd;stroke:none"
         id="path2630"
         inkscape:connector-curvature="0" />
    </g>
  </g>
</svg>
